<svg width="36" height="45" viewBox="0 0 36 45" fill="none" xmlns="http://www.w3.org/2000/svg">
<path d="M15.3928 0.757568L14.2037 1.92903H13.0461L10.5838 3.13247L7.21649 4.3679L5.29079 9.09651L0.734375 13.8995L2.83895 15.0711L3.87023 15.0284L6.11161 19.8209L9.68934 21.0563L10.9206 26.9563L9.73147 28.1597L8.79492 30.5346L11.2994 34.1237H13.0567L13.0146 35.3271L12.9935 37.7233V38.9162L14.2142 40.045H13.0567L11.2257 42.4945L11.3414 44.8801H12.9935L15.3506 43.6873L16.5292 42.4945L17.7288 43.6873H18.8863L21.3066 42.4199L28.3043 42.4945V41.3018L30.6614 42.4945H33.0185L35.4493 35.2845L33.1027 32.9096L31.9136 31.7062L30.7246 29.3313L29.567 28.1597L31.9136 20.9817L35.3862 15.0817V11.5033L34.2076 9.1177H33.0291L28.3148 6.73214L26.0103 9.07519L24.7792 7.92492L17.7709 5.49685L16.6134 3.12181L15.3928 0.757568Z" fill="#F2F2F2"/>
</svg>
