<svg width="165" height="162" viewBox="0 0 165 162" fill="none" xmlns="http://www.w3.org/2000/svg">
<g opacity="0.7">
<path d="M4.06181 22.1431L1.07335 20.0451L0 15.7425L3.56726 14.1023L4.06181 22.1431Z" fill="#B01736"/>
<path d="M83.025 67.0851L83.73 65.8923L83.3722 64.6995H81.8359L80.4258 65.8923L80.1944 64.6995L80.3101 63.5067H79.1316L78.3107 62.3139L76.3114 59.9284L73.9543 58.7356L73.3651 61.1212L72.7758 62.3139L70.6607 61.1212L68.8928 59.9284L67.3565 62.3139L66.4094 65.8923L67.4722 69.4706L66.7672 71.8562L67.7142 73.049L65.9464 75.4347L64.0628 76.6274L63.5893 75.4347H63L63.1157 80.2058L64.9994 82.5913L66.5252 86.1697H68.1772L69.7136 87.3625L69.24 88.5552H66.5357L64.5364 89.748L65.0099 90.9408H66.3042L65.3571 92.1336L63.9471 94.5191H66.6515L69.7136 95.7119L70.3029 96.9047L70.0714 98.0975L73.3651 100.483H75.9536L78.195 102.869L79.4893 104.062H80.0786L79.1316 105.254H77.953L80.8994 107.64L81.3729 111.218L83.9615 110.025L85.7294 108.833L86.2029 110.025L87.15 111.218H89.2651L89.8543 107.64L88.0865 106.447H92.0957L92.3272 104.062H91.6222L93.39 102.869L95.0421 104.062L98.3358 101.676L100.451 100.483L99.5038 94.5191L96.7994 88.5552L95.1473 86.1697L94.4423 83.7841L95.2631 77.8202L93.853 75.4347L92.0852 73.049L91.1381 70.6634L90.0753 67.0851H83.025Z" fill="#B01736"/>
<path d="M133.786 57.5536H132.25L130.956 56.3608L130.724 57.5536H130.493L129.546 56.3608H128.009L126.01 57.5536L127.189 59.9392L127.894 63.5175L129.304 64.7103L130.251 65.9031L128.714 67.0959L127.652 69.4814L128.009 73.0598L129.188 75.4453H132.25L134.723 77.831H132.724L130.135 79.0238L129.072 89.7589L124.831 90.9516H120.475L120.706 92.1444L121.885 93.3372L121.411 94.53L121.054 95.7228L122.232 96.9155L123.053 98.1083L119.044 99.3011L117.981 102.879L118.455 104.072H120.812L122.453 106.458V107.651H123.632L123.4 108.843H124.463L125.168 107.651L128.588 110.036L128.704 111.229H128.82L130.114 110.036H130.703L130.472 111.229L131.292 110.036L132.471 108.843L133.176 110.036L133.06 111.229L132.113 112.422L131.64 113.615L134.46 111.229L137.754 108.843L141.173 107.651L141.763 108.843L139.648 99.3118H140.353L141.763 101.697H144.12L145.298 93.3585V83.8269L142.941 81.4412L141.058 79.0557L139.879 80.2485L138.701 79.0557L139.763 75.4773L141.763 73.0918L141.289 69.5134L140.111 65.9351L142.941 63.5495L141.763 61.1639L141.058 58.7784L137.522 57.5856L133.786 57.5536ZM86.202 110.004L85.7285 108.812L83.9606 110.004L81.372 111.197H80.3092L81.2563 112.39L83.8449 114.775L81.372 119.547H81.1405L80.667 120.739L76.8998 121.932L73.6062 120.739L74.9005 119.547H70.3125L70.6703 120.739L70.4388 121.932H72.0909L73.9744 124.318L74.5637 126.703L74.7952 127.896L76.0895 129.089L77.3838 131.474L79.8567 130.282H82.4453L83.7397 131.474L84.2132 130.282H88.4539L89.6324 127.896L91.6318 124.318L94.5782 123.125L97.1668 121.932L97.5246 119.547L96.9353 117.161H92.9366L93.0524 115.968L93.4102 114.775H91.8738L90.2217 113.583L90.106 112.39L89.8745 111.197H87.1701L86.202 110.004Z" fill="#B01736"/>
<path d="M76.5592 108.811L74.7913 110.004H73.3812L72.4342 108.811H71.2557L69.9613 110.004L69.2563 108.811L68.3093 107.619L65.7206 108.811L63.0163 110.004L61.9534 108.811H60.8906L62.6585 114.775L62.7743 117.161L66.1942 118.354L70.3191 119.547H74.9071L75.8542 115.968L74.6756 114.775L75.9699 112.39L77.8535 110.004H78.4427L78.8006 111.197H81.3892L80.9157 107.619L77.9693 105.233L76.5592 108.811ZM127.195 59.9391L126.017 57.5535H122.481V55.168L120.713 53.9752L119.892 56.3608L118.356 58.7463L114 56.3608L108.233 58.7463L107.528 59.9391L109.527 61.1319H113.063L111.411 64.7102L108.117 67.0958L107.654 69.4814H101.646L100.699 71.8669L99.4043 73.0597H98.9308L98.3415 71.8669L96.5737 73.0597L94.4586 71.8669L90.8071 63.5281L85.7456 59.9498L82.5677 61.1425L78.327 62.3353L79.1478 63.5281H80.3264L80.2106 64.7209L80.4421 65.9137L81.8522 64.7209H83.3885L83.7463 65.9137L83.0413 67.1065H90.1126L91.1754 70.6848L92.1225 73.0704L93.8904 75.4559L95.3004 77.8415L94.4796 83.8055L95.1846 86.1911L96.8367 88.5767L99.5411 94.5406L100.488 100.505L101.309 101.697L103.193 102.89L106.728 108.854L109.201 112.432H110.495L111.316 113.625L112.263 112.432H112.968L116.62 110.047L120.503 108.854L121.323 107.661H122.502V106.468L120.86 104.083H118.503L118.03 102.89L119.093 99.3117L123.102 98.1189L122.281 96.9262L121.102 95.7334L121.46 94.5406L121.934 93.3478L120.755 92.155L120.524 90.9622H124.88L129.121 89.7695L130.184 79.0344L132.772 77.8415H134.772L132.299 75.4559H129.237L128.058 73.0704L127.7 69.492L128.763 67.1065L130.299 65.9137L129.352 64.7209L127.942 63.5281L127.195 59.9391Z" fill="#B01736"/>
<path d="M81.2629 112.379L80.3158 111.186H78.7794L78.4217 109.993H77.8324L75.9488 112.379L74.6545 114.764L75.8331 115.957L74.886 119.535L73.5917 120.728L76.8853 121.921L80.6525 120.728L81.1261 119.535H81.3576L83.8305 114.764L81.2629 112.379ZM55.5871 58.7458L54.9978 55.1675L51.8199 56.3602L47.8107 55.1675L45.9271 52.7819L44.7486 51.5891L43.8015 52.7819L44.1593 53.9747L44.7486 55.1675L46.8637 57.553L48.7472 59.9386H49.4522L50.5151 57.553H51.8093L52.6302 61.1314L52.2724 64.7097H49.5575L46.8531 67.0953L47.0846 69.4808L47.4424 70.6736L46.2638 71.8664H44.7275L44.959 70.6736L44.4855 69.4808H43.5384L42.3598 70.6736L41.8863 71.8664L43.2964 75.4448L45.6535 77.8305L48.0106 76.6377L49.547 73.0592H50.6098L51.5568 71.8664L53.0932 69.4808L55.6818 68.2881L55.324 70.6736L54.8505 73.0592H56.7341L57.9127 70.6736L58.6177 69.4808L60.0277 68.2881L58.8491 62.3242L55.5871 58.7458ZM3.5726 14.1014L6.66633 9.56457L4.26708 3.49419L1.93104 2.17361L1.66797 0.58679L7.0662 0.863698L12.717 2.01384L16.5157 5.23013L15.8317 0.55481L18.8307 4.06932L19.2096 5.67747L22.7347 8.90428L24.4289 13.3134L23.061 16.9024L22.4401 23.6863L24.6499 24.2934L26.2809 24.0591L26.765 26.0932L28.9327 26.5725L31.8054 30.4278L28.3119 30.4703L27.0386 32.6109L22.1244 28.4788L20.9879 25.646L18.2835 25.3903L12.717 23.1965L8.94977 21.993L4.03561 22.1422L3.5726 14.1014ZM109.18 112.379L106.707 108.8L103.171 102.836L101.288 101.644L100.467 100.451L98.352 101.644L95.0583 104.029L93.4062 102.836L91.6384 104.029H92.3434L92.1119 106.415H88.1132L89.8811 107.607L89.2918 111.186H89.8811L90.1126 112.379L90.2283 113.571L91.8804 114.764H93.4168L93.059 115.957L92.9432 117.15H96.9524L97.5417 119.535L97.1839 121.921L94.5953 123.114L91.6489 124.306L89.6496 127.885L88.471 130.27H84.2303L83.7568 131.463L82.4624 130.27H79.8528L77.3799 131.463L75.9699 132.656L74.202 135.042L76.5591 141.006L79.6213 145.777L80.4421 154.116L83.0307 161.272H85.8614L88.9235 160.08H92.9327L96.3526 157.694V146.969L97.5312 136.245L104.245 130.281L107.191 129.088L106.718 127.895H105.066L106.013 120.739L104.245 114.775L109.18 112.379Z" fill="#B01736"/>
<path d="M70.3026 96.8838L69.7133 95.691L66.6512 94.4982H60.6426L56.0547 98.0765L59.2325 102.848L60.8846 108.812H61.9475L63.0103 110.005L65.7147 108.812L68.3033 107.619L69.2503 108.812L69.9553 110.005L71.2497 108.812H72.4283L73.3753 110.005H74.7854L76.5532 108.812L77.9633 105.233H79.1418L80.0889 104.041H79.4996L78.2053 102.848L75.9639 100.462H73.3753L70.0816 98.0765L70.3026 96.8838Z" fill="#B01736"/>
<path d="M65.0163 82.5809L63.1327 80.1953H61.2491L61.3649 81.3881L57.1242 83.7736L55.2406 81.3881L53.357 77.8098L49.3478 80.1953L45.4648 82.5809L49.5898 90.9197L56.0719 98.0763L60.6599 94.498H63.9535L65.3636 92.1124L66.3106 90.9197H65.0163L64.5428 89.7269L66.5421 88.5341H69.2465L69.72 87.3413L68.1837 86.1485H66.5316L65.0163 82.5809Z" fill="#B01736"/>
<path d="M71.3724 39.6714L66.0689 37.2858L62.4175 36.093L63.0068 34.9003L64.5431 33.7075L64.0696 32.5147L64.3011 31.3219L63.0068 30.1291H61.3547V31.3219L60.9969 32.5147H60.8811L59.8184 31.3219L59.2291 30.1291L57.577 28.9363H56.0406L55.3356 27.7436L54.5148 26.5508V33.7075L54.8726 39.6714L54.2833 38.4786H53.6941L53.5783 36.093V34.9003L52.042 36.093L50.3899 37.2858V36.093H50.8634L50.0426 34.9003L47.8012 36.093L45.6862 37.2858H43.0975L41.5612 38.4786H39.6776L36.4997 36.093L34.5004 32.5147L34.1426 34.9003L34.3741 36.093L32.3748 34.9003H30.7227L32.1327 37.2858L33.3113 42.057L32.4905 44.4425L32.722 46.8281L33.5428 48.0209H34.9529L35.0686 51.5993L34.9529 53.9849L37.4257 61.1416L38.1307 69.4804L38.3623 79.0122H42.2452L43.7815 81.3977L44.7286 82.5905H45.5494L49.3165 80.205L53.3257 77.8194L55.2094 81.3977L57.0929 83.7833L61.3337 81.3977L61.2179 80.205H63.1015L62.9857 75.4338H63.575L64.0485 76.6266L65.9321 75.4338L67.7 73.0481L66.7529 71.8553L67.4579 69.4698L66.3952 65.8914L67.3422 62.3131L68.8785 59.9275L70.6464 61.1203L72.7615 62.3131L73.3507 61.1203L73.94 58.7347L74.5293 57.5419L74.4136 55.1564H75.1186L75.7079 53.9636H73.7085L71.0042 49.1925L71.5934 47.9997L72.0669 46.8069L71.5934 45.6141L71.3619 44.4213H72.1827L73.2455 43.2284L72.772 40.8428L71.3724 39.6714ZM54.9989 55.167L55.5882 58.7454L58.8818 62.3237L60.0604 68.2877L58.6503 69.4804L57.9453 70.6732L56.7667 73.0588H54.8832L55.3566 70.6732L55.7144 68.2877L53.1258 69.4804L51.5895 71.866L50.6424 73.0588H49.5796L48.0538 76.6373L45.6967 77.8301L43.3395 75.4444L41.9295 71.866L42.403 70.6732L43.5816 69.4804H44.5286L45.0022 70.6732L44.7706 71.866H46.307L47.4856 70.6732L47.1278 69.4804L46.8963 67.0949L49.6007 64.7093H52.305L52.6628 61.131L51.842 57.5526H50.5477L49.4849 59.9382H48.7798L46.8963 57.5526L44.7812 55.167L44.1919 53.9743L43.8342 52.7815L44.7812 51.5887L45.9597 52.7815L47.8434 55.167L51.8526 56.3598L54.9989 55.167Z" fill="#B01736"/>
<path d="M117.535 12.2591H116.598L115.778 13.4519L110.716 14.6447L105.886 13.4519L103.182 11.0663L99.4145 14.6447L94.4688 13.4519L93.648 14.6447V17.0302H94.5951L95.3001 18.223H90.2386L89.8808 19.4158L90.2386 20.6086L89.2915 22.9941L88.4707 24.1871L86.3556 26.5726L83.2935 27.7654L79.5263 25.3798L75.8749 21.8014H71.2869L69.1718 20.6086L66.2254 22.9941L63.0476 25.3798L65.0469 26.5726L66.1097 27.7654L69.5296 28.9582L72.1183 30.151L71.8867 31.3438H71.1817L70.2346 33.7293L69.5296 32.5365H68.3511L66.2359 31.3438H64.3524L64.1208 32.5365L64.5944 33.7293L63.058 34.9221L62.4688 36.1149L66.1202 37.3077L71.4237 39.6932L72.8338 40.886L73.3073 43.2716L72.2445 44.4644H71.4237L71.6552 45.6571L72.1287 46.8499L71.6552 48.0427L71.066 49.2355L73.7703 54.0067H75.7697L75.1804 55.1995H74.4754L74.5911 57.5851L74.0018 58.7779L76.3589 59.9707L78.3583 62.3562L82.599 61.1634L85.7769 59.9707L90.8384 63.549L94.4898 71.8878L96.6049 73.0806L98.3727 71.8878L98.962 73.0806H99.4355L100.73 71.8878L101.677 69.5023H107.685L108.148 67.1167L111.442 64.7311L113.094 61.1528H109.559L107.559 59.96L108.264 58.7672L107.559 57.5744L106.738 56.3817H104.855L105.444 55.1889V53.9961H103.445L104.623 46.8393L101.677 40.8754L102.266 39.6826H103.445L104.855 38.4898L106.381 37.297L110.264 38.4898L114.504 36.1042L114.273 32.5259L113.684 30.1403L112.978 28.9475H112.473L115.767 25.3692L118.945 22.9836L117.766 17.0196L117.535 12.2591Z" fill="#B01736"/>
<path d="M146.514 18.2238V17.031H142.978L140.148 14.6454L139.443 9.8743L136.854 8.68152L133.792 7.48873L132.498 6.29595L131.435 3.91038H129.909L128.141 5.10316L125.31 3.91038H122.364L122.248 6.29595L122.606 8.68152L120.133 11.0671L117.545 12.2599L117.776 17.031L118.955 22.9949L115.777 25.3806L112.483 28.959H112.957L113.662 30.1518L114.251 32.5373L114.482 36.1157L110.242 38.5013L106.359 37.3085L104.822 38.5013L103.412 39.694H102.234L101.645 40.8868L104.591 46.8508L103.412 54.0076H105.412V55.2004L104.822 56.3932H106.706L107.527 57.5859L108.232 58.7787L113.998 56.3932L118.355 58.7787L119.881 56.3932L120.701 54.0076L122.469 55.2004V57.5859H126.005L128.004 56.3932H129.53L130.477 57.5859H130.709L130.94 56.3932L132.234 57.5859H137.538L141.074 58.7787L141.779 61.1643L142.957 63.5499L145.314 62.3571L146.493 61.1643H150.029V58.7787L151.207 55.2004L155.921 51.6219L161.814 50.4291L164.171 48.0435V46.8508L161.814 42.0796L160.636 38.5013H158.279L155.921 37.3085V34.9229L154.743 33.7301H153.564L152.386 34.9229L151.207 33.7301V32.5373H150.029L148.85 31.3446L151.207 30.1518L153.564 26.5734L152.386 22.9949L151.207 21.8022H150.029V19.4166H147.671L146.514 18.2238Z" fill="#B01736"/>
</g>
</svg>
