<svg width="401" height="486" viewBox="0 0 401 486" fill="none" xmlns="http://www.w3.org/2000/svg">
<g opacity="0.2">
<path d="M103.051 74.4695L104.23 76.8551H107.766V69.6984L103.051 74.4695ZM278.531 22.0188L279.709 23.2116V24.4044L282.066 25.5971L280.888 22.0188L279.709 20.826L278.531 22.0188ZM204.334 27.9827L201.977 26.7899L203.155 29.1755L205.512 30.3683V27.9827H204.334Z" fill="#B01736"/>
<path d="M45.327 440.409L51.2198 451.145L53.5769 458.301L54.7555 459.494H55.934L58.2912 460.687L59.4697 461.88L64.184 460.687L67.7196 459.494V460.687L66.5411 461.88L72.4339 470.218H77.1481L79.5052 469.026L80.6838 466.64L86.5766 467.833H90.1123L91.2909 466.64H92.4694L93.648 467.833L96.0051 464.255L97.1255 461.859L101.84 460.666H106.554V458.28L107.733 455.895L113.625 457.088L118.34 454.702H123.054V453.509L124.232 452.316H125.411V453.509H126.59V454.702H127.768L130.125 453.509V455.895L131.304 458.28H136.018L141.911 459.473L143.089 463.051L144.268 467.823L153.696 470.208H154.875L156.053 469.015L161.946 471.401H164.303L167.839 472.594L170.196 474.979L178.436 470.208L180.793 463.051H179.614L178.436 460.666V457.088L177.257 455.895L179.614 449.931L183.15 445.16H184.328L187.864 441.581L189.016 439.249L190.175 440.421L192.532 441.614L200.771 446.385L207.843 449.963H209.021L210.2 451.156L214.914 452.349L218.45 453.542V460.699L225.521 469.037L236.118 471.423L245.536 469.037L247.893 467.845H249.071L258.5 470.23H262.035L265.571 472.616L267.928 475.001H270.285L272.642 476.194L279.667 483.393L296.146 485.779H297.324L298.503 484.586L299.681 485.779H302.039L304.396 484.586L307.931 482.2L324.41 477.429L326.767 472.658L335.007 465.502L340.9 466.694L345.614 469.08H350.328L357.399 467.887L363.292 471.465L371.532 472.658L373.889 469.08L377.424 465.502L380.96 463.116L383.317 460.73V458.345H382.139V457.152L384.496 447.62L386.853 436.896L390.389 432.125L392.746 427.354L390.389 424.968V422.582L389.21 421.39L385.674 422.582L384.496 419.004L385.674 416.619L389.21 413.04V411.847L390.389 410.655L395.103 408.269L400.956 404.062L398.599 400.483L395.063 396.905L396.242 394.519V390.941L398.599 388.555L395.063 386.17H393.885L392.706 384.977L395.063 379.013L392.706 373.049L390.349 374.242H389.171L387.992 370.664L385.635 367.085L382.099 368.278L379.742 369.471V370.664H378.564L376.206 368.278V366.058H377.553L378.697 364.666L373.859 362.231L372.756 361.085L372.671 358.736H371.492V354.502L367.996 349.822L366.817 345.051H365.639L364.46 346.244L362.21 341.579V334.423L361.032 332.037V330.844L359.853 329.651L358.675 327.266V323.688L357.496 321.302V318.916L356.318 316.531H344.532V314.145L343.354 312.952V310.567L340.996 309.374L338.639 306.989L335.104 305.796H330.389L326.854 309.374H324.497L322.139 310.567L320.961 314.145L319.782 316.531H317.425L312.711 323.688L306.818 329.651L307.997 326.073L305.64 324.88L304.461 322.495V321.302L300.925 324.88H293.854V326.073H292.675L289.14 324.88L287.961 327.266L282.068 328.459H279.711L278.533 323.688V317.724L280.89 315.338V311.76L283.247 304.603L285.604 298.639L282.068 295.061L280.89 289.097L283.247 286.711L284.426 284.326L282.068 280.747L279.711 278.362L279.68 272.174L278.533 264.059L274.997 260.48L271.461 259.288L273.818 255.709L274.997 254.516L273.818 250.938L272.64 248.552H264.401L259.686 247.36L257.329 244.974H254.972L252.623 240.235L254.98 236.657V233.078L257.337 229.5L258.516 228.307L259.695 225.922L259.679 225.905L254.98 221.15L253.802 218.765V218.75L253.793 218.733V212.784L252.623 210.415V210.4L252.615 210.383V202.068L250.266 199.691L250.278 199.679L250.258 199.659L252.615 197.273L256.151 194.888L257.329 181.778V165.109L254.98 161.543L254.973 161.512L254.972 161.511L253.793 156.74V155.547L254.972 153.161H256.151V151.969L258.508 153.161H260.844L263.201 150.776L266.737 149.583L270.272 150.776H272.629L274.987 147.197V142.426L277.344 141.234L278.522 140.041V137.655L279.701 134.077L289.129 126.92V125.727L287.951 122.149L285.594 117.378V112.607L284.415 107.836L282.058 105.45L279.701 104.257L278.522 103.064V99.4859L277.344 98.2931L276.165 93.522L277.344 88.7509L276.165 87.5581V83.9797L274.995 83.9799L273.816 82.7871L276.173 80.4016L277.352 76.8231L278.531 75.6303V73.2447L279.709 72.052L277.352 73.2447L276.173 74.4375L273.816 73.2447L270.281 75.6303V79.2088H272.638L276.173 78.016V79.2088L274.995 80.4016H273.816L271.459 83.9799L269.102 85.1727L267.923 83.9799L266.745 86.3655L264.388 87.5583V91.1366L262.031 89.9438L260.852 88.7511V89.9438H252.623L251.445 93.5222L247.909 97.1005H246.73L247.909 94.715L250.266 92.3294V89.9438L251.445 87.5583L254.98 86.3655L256.159 82.7871L254.98 81.5943L253.213 80.6998L251.445 80.4016H252.623L253.213 80.6998L258.516 81.5943L263.23 76.8231H264.409L266.766 72.052L271.48 67.2808L272.659 63.7025L279.73 58.9314V57.7386L280.909 56.5458L283.266 52.9674L286.801 49.3891L287.98 43.425L285.623 42.2323L284.444 39.8467V41.0395L283.266 42.2323V38.6539H284.444L286.801 39.8467V42.2323L287.98 39.8467V33.8828H285.623V30.3044L283.266 27.9189L283.245 30.3683V31.5611L282.066 29.1755V26.7899L280.888 25.5971H278.531L273.816 18.4405L272.638 19.6332L271.459 18.4405H270.281V19.6332H264.388L262.031 20.826L260.852 19.6332H259.695L258.516 20.826L256.159 25.5971H252.623L254.98 19.6332V14.8621H247.909L249.088 13.6693V12.4765L245.552 13.6693L243.195 12.4765L245.552 11.2838L249.088 7.70541H250.266L251.445 6.51263L249.088 4.12707L245.552 2.93428L244.373 1.74137V0.548584H242.016L239.659 1.74137H238.48L231.409 10.0803L226.695 18.4191L227.873 19.6119V23.1903L220.802 25.5758L219.624 24.383H217.266V25.5758L219.624 29.1543L220.802 31.5399H218.445L217.266 29.1543L214.909 30.3471H213.731V31.5399L212.552 32.7327H211.374V33.9254H207.838L206.659 35.1182H205.481V33.9254L204.302 32.7327L201.945 33.9254L200.767 35.1182L201.945 32.7327L203.124 31.5399L196.052 29.1543L188.981 30.3471L187.802 31.5399L190.16 32.7327H192.517V33.9254L190.16 35.1182H187.802L183.088 36.311L179.552 37.5038H172.481L165.41 41.0821L163.053 43.4677H155.981L157.16 44.6605L159.517 45.8533L158.338 47.046L155.981 48.2388L154.803 50.6244V53.01L152.446 50.6244L148.91 49.4316V50.6244L154.803 56.5883L153.624 57.7812L151.267 55.3955L150.088 56.5883H147.731L153.624 62.5523L152.446 63.7451V70.9018H151.267L148.91 72.0946H147.731L151.267 68.5162V67.3235L146.553 66.1307L143.017 67.3235H137.124L122.982 64.9379H119.446L117.089 63.7451V64.9379L115.91 67.3235L114.732 68.5162L115.91 69.709V70.9018H114.732V73.2874L115.91 74.4802L114.732 78.0585L113.553 80.4441V82.8297L112.375 84.0224L115.91 87.6009L119.446 89.9865V97.1432L122.982 99.5287L124.16 104.3L119.446 111.457L120.624 113.842L119.446 124.567L114.732 126.952L118.267 135.291L119.446 140.062H118.267V138.869L115.91 137.677L114.732 136.484V131.713L113.553 129.327L112.375 128.134L117.089 116.217L115.91 113.831L113.553 112.639L114.732 111.446V109.06L118.267 106.675L121.803 101.904L118.267 99.5181L112.375 98.3253L110.017 91.1686L106.482 86.3975L102.946 82.819H99.4104L101.767 87.5902L106.482 92.3614V95.9397L104.125 98.3253H100.589V103.096L105.303 107.868V113.831L104.125 119.795H101.767L99.4104 118.603L97.0532 120.988L92.339 124.567H91.1604V125.759L88.8033 126.952V130.531L89.9819 132.916L91.1604 136.494L94.6961 138.88L97.0532 141.266H100.589L102.946 138.88L104.125 140.073V141.266L106.482 143.651L104.125 157.954L101.767 163.918L97.0532 166.303V171.075L98.9263 172.491L97.8425 174.387L95.8747 175.835V177.028L97.0532 178.221L98.2318 181.799L99.4104 187.763L98.2318 192.534V200.873L99.4104 204.451L102.946 205.644V213.994L101.767 216.379H100.589L101.767 219.958H104.125L105.303 222.343L107.66 223.536L110.017 222.343L111.196 225.922L110.017 233.078L105.303 240.235H102.946L101.767 241.428V243.813L102.946 245.006L105.303 246.199L104.125 248.585L102.946 249.777V250.97L101.767 253.356L98.2318 258.127L92.339 262.898L93.5176 271.237L98.2318 273.622L100.589 276.008L92.3495 280.779L82.9316 283.165V298.66L87.488 300.961L92.3495 299.842L97.0638 301.035L100.599 302.228L102.957 303.421V304.614L104.135 305.806H105.314L107.671 308.192V311.77L108.849 314.156L112.385 315.349L114.742 318.927L112.385 320.12L108.849 322.505L107.671 326.084V329.662L112.385 334.433L114.742 340.397V341.59H113.564V343.976L112.385 345.168H110.123L107.766 349.94L106.587 353.518L101.897 353.39L98.3613 355.776L93.6471 353.39L92.458 354.573H84.2186L83.04 355.765L81.8615 354.573H80.6829L77.1472 358.151H75.9687L74.7901 356.958L72.433 358.151L70.3195 358.033L68.8973 360.536V361.729L70.0759 365.308V368.886L71.2544 370.079L68.8973 374.85L70.0759 377.236V379.621L68.8973 380.814L67.7187 383.199L64.1798 385.542L63.0013 386.735L58.2975 386.756H53.5833V389.142H52.4047L51.2262 386.756L45.3334 390.335L41.7977 393.913L37.0834 386.756L38.262 385.563L37.0834 384.371H35.9049V381.985L34.7263 380.792L33.5478 377.214V376.021L26.4764 378.407L18.237 381.985L17.0584 383.178H13.5228L9.98707 381.985H7.62996L5.27283 383.178V381.985L4.09428 380.792L0.558594 384.371L8.798 427.279L13.5122 426.086V423.701H15.8693V422.508L17.0479 421.315L19.405 427.279L21.7622 432.05L26.4764 433.243L28.8335 434.436H33.5478V433.243H37.0834L38.262 432.05L42.9762 435.629L45.327 440.409Z" fill="#B01736"/>
</g>
</svg>
