<svg width="502" height="601" viewBox="0 0 502 601" fill="none" xmlns="http://www.w3.org/2000/svg">
<g opacity="0.1">
<path d="M361.83 438.948L355.937 431.791L351.223 425.827L347.687 421.056V422.249H346.509V419.863L344.152 418.671L341.795 416.285L340.616 410.321L338.259 403.164H337.08L334.723 400.779L333.545 398.393H334.723L335.902 399.586V400.779H337.08L332.366 394.815L328.83 390.044V387.658L325.295 385.272L324.116 384.08V386.465H322.938L321.759 387.658L324.116 388.851L327.652 391.236V392.429H328.83V394.815H327.652V396.008L328.83 397.2L327.652 400.779L326.473 399.586H325.295L322.938 400.779V403.164L324.116 405.55L325.295 406.743L330.009 423.42L334.723 426.999L340.616 431.77L341.795 435.348V440.12L344.152 442.505L345.33 444.891L352.402 466.35V467.543L357.116 471.121L359.473 475.892L360.652 479.471V484.242L363.009 486.628L364.187 489.013L366.544 498.545L371.259 505.702L372.437 504.509V502.123L371.259 496.159L372.437 491.388L373.616 492.581L377.151 491.388L381.866 493.774L383.044 496.159L384.223 497.352L381.866 491.388L379.508 486.617L378.33 487.81L373.616 485.424L371.259 483.039L366.544 479.46L363.009 473.496L361.83 466.34V460.375L360.652 457.99V455.604L361.83 454.412L363.009 452.026L368.901 450.833L374.794 453.219L377.151 454.412L378.33 455.604L375.973 453.219L372.437 450.833L370.08 448.448L368.901 446.062L361.83 438.948Z" fill="#B01736"/>
<path fill-rule="evenodd" clip-rule="evenodd" d="M30.8793 113.552H33.2364L37.9507 118.323L36.7721 120.709L34.415 121.901L30.8793 119.516L29.7008 117.13H30.8793V113.552ZM180.451 136.194V137.386L178.094 138.579L175.737 137.386L176.916 136.194L179.273 135.001L180.451 136.194Z" fill="#B01736"/>
<path fill-rule="evenodd" clip-rule="evenodd" d="M444.26 220.221H441.903V234.523H443.081V230.945L444.26 228.56V226.174L445.438 224.981L446.617 222.596L444.26 220.221Z" fill="#B01736"/>
<path fill-rule="evenodd" clip-rule="evenodd" d="M348.868 63.4866H347.69L346.511 67.0649L351.225 69.4505L353.583 68.2577L355.94 65.8721L354.761 64.6794L353.583 62.2938H351.225L348.868 63.4866Z" fill="#B01736"/>
<path d="M288.804 501.08L287.625 503.466L288.804 505.851L292.34 509.43L289.983 513.008L288.804 514.201V520.165L289.953 525.977V538.482L288.774 540.867L289.953 543.253L288.774 544.446L287.595 546.831L288.774 550.41L286.417 552.795H276.999L273.463 553.988L272.285 558.759L269.928 559.952L268.749 561.145L274.642 573.073L275.82 580.23L276.999 581.422V582.615L275.82 590.954L272.285 592.147L271.106 594.532H272.285L273.463 595.725L275.82 600.496L276.999 598.111V596.918L274.642 594.532H280.535V592.147L281.713 587.376L284.07 583.797L282.892 582.604L284.07 581.412H285.249V584.99L288.785 581.412V580.219L289.963 583.797V586.183H291.142V584.99H292.32L293.499 586.183L294.677 584.99L297.034 586.183L298.213 587.376V584.99L299.392 586.183L301.749 584.99L311.177 575.448L315.891 567.109L317.07 565.916V563.53H318.249V558.759L319.427 555.181V552.795L321.784 550.41L322.963 544.446L327.677 530.132L330.034 524.169L331.213 518.205L332.391 511.048V505.084L333.57 500.313L333.579 497.502L335.936 486.777L338.293 478.438V477.246L337.114 474.86V470.089L335.936 468.896V465.318L334.757 461.739L332.4 456.968V453.39L326.507 436.701V434.316L327.686 428.352L326.507 423.581L327.686 421.195L326.507 420.002L325.329 421.195L322.972 417.617V414.038H321.793L320.615 412.846L315.9 410.46H319.436L320.615 408.074L319.436 405.689H317.079L314.722 404.496L313.543 403.303H310.008L306.472 400.918V399.725L304.115 398.532H302.936L301.758 397.339H299.4L297.043 399.725L293.508 400.918H292.329L293.508 403.303V412.835L292.329 410.449V405.678L289.972 410.449L284.079 416.413V412.835L286.436 408.064H285.258L284.079 409.257H282.901L280.544 408.064L282.901 405.678V404.485L279.365 408.064L280.544 409.257V412.835H278.186V414.028L275.829 408.064L272.294 402.1L264.054 405.678L258.161 403.293L260.518 399.714L261.697 397.329L264.054 393.75L265.233 390.172L266.411 387.786L267.59 386.594L271.126 380.63L272.304 373.473L274.661 371.087V369.895L273.483 368.702L274.661 366.316V362.738L275.84 361.545L278.197 355.581L281.733 348.424V346.039L282.911 344.846L284.09 342.461V336.497L285.268 331.725L287.625 329.34L288.804 319.808L294.697 311.469H295.875L299.411 307.891L305.304 305.505L311.197 301.927H312.375L313.554 300.734H314.732V303.12L317.089 304.313L318.268 301.927L317.089 298.349L321.762 298.392L325.298 297.199H326.477L331.191 292.428H333.548L337.084 291.235L335.905 290.042H334.727V287.657H335.905V282.885L342.977 280.5H346.512V281.693H348.869V279.307L352.405 276.921L357.119 279.307L359.476 278.114H360.655V279.307H359.476L357.119 281.693L354.762 282.885L355.941 286.464H357.119L359.476 285.271L361.834 281.693L363.012 280.5H365.369L367.726 279.307V275.729L368.905 273.343L372.441 272.15H374.798L375.976 270.957V268.572H379.512L378.333 267.379H379.512L380.691 266.186L379.512 263.801L377.155 262.608L374.798 263.801L373.619 264.994V266.186L372.441 267.379H371.262V262.608H370.084L368.905 261.415V260.222L370.084 259.03H368.905V251.873L371.262 247.102L372.441 241.138L371.262 239.945V235.174L372.441 232.788L370.084 228.017L372.441 223.246L373.619 219.668H375.976L377.155 218.475L381.869 211.318H385.405L387.762 212.511L388.94 208.933V206.547L391.298 208.933L392.476 211.318V216.089L394.833 218.475V219.668L396.012 220.861L398.369 218.475L399.548 220.861L400.726 224.439L403.083 212.522L405.44 199.412L406.588 197.611V196.418L407.767 197.611H410.124V194.033H406.588L404.231 189.261V186.876L403.052 185.683L401.874 182.105L405.409 179.719L406.588 176.141H412.481L410.124 178.526L408.945 183.298L413.659 190.454V192.84L414.838 195.225H417.195L418.374 198.804V201.189L420.731 203.575L419.552 205.961L417.195 208.346V211.924L416.016 213.117L414.838 215.503V219.081L416.016 220.274L414.838 227.431V233.395L413.659 234.587V235.78L412.481 240.551V245.322L414.838 247.708V248.901L413.659 250.094V257.25L411.302 266.793L410.124 269.178L408.945 270.371V273.949L404.231 276.335L406.588 277.528L408.945 281.106V288.263L407.767 294.227L410.124 301.383L413.659 308.54L430.149 331.193L451.352 352.652L454.888 358.616L459.602 363.387L463.138 365.773L464.316 359.809V353.845L465.495 352.652L466.674 349.074L465.495 338.349L463.138 335.964H461.959V333.578L460.781 331.193H459.602L458.424 330L459.602 328.807L461.959 330L465.495 321.661L467.852 320.468H469.031V319.275L463.138 314.504L460.781 307.347V301.383L464.316 295.42H465.495L466.674 296.612L469.031 291.841V288.263L461.959 283.492L458.424 275.153L459.602 266.814V265.621L458.424 264.428L459.602 262.043L460.781 263.236V266.814H463.138L464.316 263.236L458.424 258.465V257.272L456.066 259.657L452.531 256.079L450.174 252.5V248.922L448.995 245.344H443.081L441.903 246.537L443.081 247.729L440.724 248.922L438.367 247.729L434.831 237.005V229.848L433.653 228.655H434.831V227.463H433.653V223.884L432.474 222.691H431.296L430.117 216.728L432.474 211.956L433.653 210.764L432.474 209.571H436.01L438.367 210.764L439.546 207.185L437.188 205.992V204.8L439.546 200.029L440.724 195.257L441.903 196.45L446.617 203.607V195.268L447.796 189.304L451.331 182.147L456.045 179.762L461.938 177.376L466.652 179.762H470.188L469.01 176.183L466.652 172.605L467.831 170.219L469.01 166.641V160.677L470.188 159.484L469.01 157.099H467.831L469.01 155.906H470.188L467.831 153.52H469.01L470.188 149.942L469.01 148.749H467.831L470.188 146.364V142.785H469.01V140.4H470.188L471.367 138.014V135.629L472.533 135.064L473.712 131.486V126.715L478.426 112.401H476.069V111.209L474.89 110.016H476.069V108.823L478.426 111.209L490.211 104.052L489.033 102.859V98.0881L481.961 95.7025V93.3169L478.426 94.5097L474.89 93.3169L468.997 89.7386L461.926 86.1601L460.747 89.7386L456.033 90.9314L452.497 87.3529L451.319 90.9314V92.1242H448.962V94.5097L447.783 93.3169L448.793 92.1242H444.247L444.637 93.3595L445.426 95.7025L443.069 96.8953L441.89 98.0881L443.069 95.7025L444.247 94.5097V93.3169L443.069 90.9314H444.247L451.319 87.3529L450.14 86.1601V84.9673H454.855L459.569 81.389L461.926 74.2323L460.747 67.0756L458.39 59.9189H454.855L450.14 58.7261L448.962 55.1476L450.14 52.7621H448.962L447.783 51.5693L450.14 50.3765L451.319 51.5693V46.7982L453.676 50.3765L454.855 53.9548H457.212L458.39 52.7621H459.569L461.926 57.5332L464.283 55.1476L466.64 49.1837L468.997 45.6054L471.354 44.4126L474.89 43.2198L478.426 45.6054L480.783 46.7982L485.497 45.6054L489.033 43.2198L491.39 40.8342L494.926 42.027L498.461 40.8342V38.4487L497.283 37.2559V36.0631L500.818 39.6415L501.997 37.2559L499.64 34.8703H500.818L501.997 33.6775V32.4848H499.64L497.283 33.6775L494.926 31.292V32.4848H493.747L494.926 30.0992V25.3279L492.568 22.9424L490.211 21.7496H484.319L489.033 19.364L491.39 17.3405L492.568 14.7207V13.89L490.211 14.2521L487.854 13.4214L490.211 12.5907L493.747 10.4501L491.39 8.90588L490.211 7.71309V0.918457L489.033 1.28052L487.854 2.23903L486.676 2.4733L485.497 2.59043L481.961 3.54895L479.604 4.37967L473.712 4.49681H470.176L467.819 7.4787L466.64 10.4607L465.462 11.4192V11.6535L466.64 12.612V13.5705L464.283 12.8569L463.104 11.6642L461.926 12.5907L460.747 14.4971L459.569 15.807L458.39 16.9998L459.569 17.234L460.747 16.4033L463.104 16.9998L465.462 17.9583V20.5781H467.819L470.176 21.7709H467.819V24.1565H466.64L465.462 22.9637L464.283 24.1565H460.747V21.7709L458.39 20.5781L453.676 17.1169L452.497 16.8826H451.319V19.3853L450.14 19.0233V18.544L448.962 16.9891L446.605 15.7963L444.247 16.5099L443.069 17.7027L446.605 18.299L445.426 19.3747L443.069 21.7602L441.89 19.3747L440.712 18.0648L439.533 19.1404L437.176 20.5675L435.998 19.3747L434.819 19.1404L431.283 20.5675L427.748 22.953L426.569 21.7602H425.391L420.676 24.1458L419.498 22.953L417.141 21.7602L413.605 22.953L410.069 25.3386H404.177L402.998 26.5314L400.641 27.7242V26.5314H401.819V25.3386H400.641L398.284 26.5314L397.105 27.7242L394.748 28.9169H392.391L391.212 30.1097L384.141 32.4954H382.962V34.881L381.784 33.6882H380.605L375.891 39.6521L372.355 43.2305H369.998L371.177 44.4233V45.616H368.82L366.463 46.8088L365.284 48.0016L362.927 49.1944L359.391 51.5799L355.856 52.7727L358.213 55.1583L359.391 57.5439V61.1223H361.748L362.927 59.9294L368.82 63.5079L369.998 69.4718L368.82 71.8574V74.243H365.284L362.927 71.8574L355.856 74.243L353.498 71.8574L347.606 69.4718L346.427 70.6646V76.6285L344.07 79.0141H341.713L339.356 80.2069L335.82 83.7852L332.284 84.978L329.927 83.7852V84.978L327.57 87.3636H326.392L325.213 89.7491V90.942L322.856 93.3276L321.984 95.4895V97.8751H320.805V96.6823H319.626V102.646L318.448 100.261L316.091 97.8751L312.555 99.0679H307.841L306.662 95.4895L304.305 90.7184L291.162 87.3212L272.316 99.2383L266.423 106.395L261.709 108.781L252.28 104.009H246.387L241.673 102.817V104.009L240.495 105.202H238.137L236.959 104.009L238.137 101.624L240.495 100.431L238.137 98.0455L234.602 95.66L229.888 96.8528L226.352 98.0455L221.638 107.577L216.923 115.916H215.787V113.531L214.608 112.338L216.965 111.145L218.144 109.952L216.965 108.759V106.374L219.323 105.181L220.501 102.795L218.144 103.988L212.251 107.567L209.894 109.952L208.716 107.567L212.251 103.988H213.43L216.965 101.603L220.501 100.41L207.548 101.603L194.594 106.374H188.701L186.344 107.567L187.523 108.759L189.88 109.952L188.701 113.531L185.165 114.723L182.808 120.687L183.987 121.88L186.344 120.687V123.073L187.523 124.266L188.701 126.651V129.037L191.058 130.229V132.615H188.701V135.001L186.344 132.615H185.165L183.987 133.808H181.63V140.965L176.916 138.579L168.676 137.386L165.14 142.157L160.426 145.736L155.712 144.543L152.176 142.157L150.998 139.772L153.355 138.579L150.998 137.386L149.819 148.111L148.641 161.221L147.462 162.414L145.105 160.028V161.221H142.748L141.569 160.028V158.835H138.034L133.319 151.678H132.141L130.962 150.486L133.319 148.1L132.141 145.714L129.784 144.522L130.962 145.714V146.907L129.784 148.1L127.427 145.714L126.248 143.329L120.355 139.751L117.998 138.558H121.534L126.248 143.329H129.784L132.141 140.943L130.962 137.365L128.605 134.979V130.208L127.427 127.823V126.63L125.069 124.244H122.712L115.641 118.28L110.927 120.666H105.034L101.498 118.28L96.784 117.088V118.28L95.6054 119.473L93.2483 125.437L94.4268 130.208V134.979L92.0697 133.787H88.534V134.979H86.1769L83.8198 136.172L82.6413 137.365L79.1056 136.172L76.7485 134.979H69.6876L67.3305 133.787V131.401L69.6876 129.016L68.5091 127.823H59.0911L56.734 126.63L55.5554 127.823H54.3769L52.0197 126.63H49.6626L47.3055 129.016L44.9484 130.208L41.4127 131.401V134.979L39.0556 132.594L40.2341 130.208L39.0556 126.63L36.6985 124.244V127.823L35.5199 129.016H32.0579L28.5222 126.63L27.3436 127.823L26.1651 131.401L23.808 133.787L24.9865 134.979H26.1651V138.558L27.3436 139.751L26.1651 144.522L27.3436 149.293L28.5222 150.486V154.064L29.7008 155.257L32.0579 156.45L34.415 158.835L35.5936 163.606V168.377L37.9507 173.149L39.1292 176.727V177.92L29.7008 185.076L28.5222 188.655V191.04L27.3436 192.233L24.9865 193.426V198.197L22.6294 201.776H20.2723L16.7366 200.583L13.2009 201.776L10.8438 204.161H8.50773L6.15061 202.968V204.161H4.97205L3.79349 206.547V207.739L4.97205 212.511L7.32917 216.089V232.777L6.15061 245.887L2.61493 248.273L0.257812 250.659L2.61493 253.044V261.383L3.79349 263.769V269.732L4.97205 272.118L9.68629 276.889L8.50773 279.275L7.32917 280.468L4.97205 284.046V287.624L2.61493 291.203L4.97205 295.974H7.32917L9.68629 298.359L14.4005 299.552H22.6399L23.8185 301.938L24.997 305.516L23.8185 306.709L21.4614 310.287L24.997 311.48L28.5327 315.058L29.6797 323.174L29.7113 329.361L32.0684 331.747L34.4255 335.325L33.247 337.711L30.8898 340.096L32.0684 346.06L35.6041 349.639L33.247 355.603L30.8898 362.759V366.338L28.5327 368.723V374.687L29.7113 379.458H32.0684L37.9612 378.266L39.1398 375.88L42.6754 377.073H43.854V375.88H50.9254L54.461 372.302V373.494L55.6396 375.88L57.9967 377.073L56.8182 380.651L62.711 374.687L67.4252 367.531H69.7823L70.9609 365.145L72.1394 361.567L74.4966 360.374H76.8537L80.3894 356.795H85.1036L88.6393 357.988L90.9964 360.374L93.3535 361.567V363.952L94.5321 365.145V367.531H106.318L107.496 369.916V372.302L108.675 374.687V378.266L109.853 380.651L111.032 381.844V383.037L112.21 385.422V392.579L114.568 397.35L115.746 396.157H116.925L118.103 400.929L121.492 405.502V409.735H122.671V412.121L123.849 413.314L128.564 415.699L127.385 416.892H126.206V419.278L128.564 421.663H129.742V420.471L132.099 419.278L135.635 418.085L137.992 421.663L139.171 425.242H140.349L142.706 424.049L145.063 430.013L142.706 435.977L143.885 437.17H145.063L148.599 439.555L146.242 441.941V445.519L145.063 447.905L148.599 451.483L150.956 455.061H156.849L161.563 452.676H162.742L163.92 451.483L168.635 453.869L169.813 452.676L173.349 455.061L176.885 456.254V455.061H183.956L185.134 456.254V457.447H186.313L187.492 458.64H188.67V461.025H189.849L193.384 464.604L194.563 469.375L200.456 476.531H201.634V477.724L202.813 478.917V481.303L205.17 483.688L207.527 487.267L208.706 488.459L209.884 492.038H211.063L212.241 493.231V495.616L215.777 501.58L225.205 499.194L226.384 500.387H228.741V501.58H229.92L231.098 500.387L232.277 501.58V500.387H233.455V499.194L238.17 502.773L246.409 503.966L247.562 504.509V509.28L251.098 512.858V515.244L252.277 517.629L254.634 520.015L256.991 521.208L259.348 520.015H260.527L267.598 516.437H269.955L271.134 514.051V511.665L273.491 510.473L275.848 508.087H278.205L280.562 503.316L284.098 500.93L288.804 501.08Z" fill="#B01736"/>
</g>
</svg>
