<svg width="490" height="273" viewBox="0 0 490 273" fill="none" xmlns="http://www.w3.org/2000/svg">
<g opacity="0.4">
<path d="M171.222 207.588L166.508 205.203L164.15 200.432L162.972 201.624L160.615 202.817L152.375 198.046L146.483 195.661L140.59 198.046L141.768 201.624L140.59 206.396H145.304L147.661 211.167L151.197 214.745H152.375V218.323L157.09 220.709H158.268L159.447 221.902L162.982 218.323L167.697 220.709L170.054 219.516L171.232 217.131L173.589 215.938H174.768V214.745L172.411 211.167H168.875L170.054 209.974L171.222 207.588Z" fill="#B01736"/>
<path d="M127.64 101.506L124.105 100.313L119.391 101.506L118.212 106.277L119.391 109.855L124.105 112.241L127.64 109.855L129.998 106.277L127.64 101.506ZM329.027 82.4422H323.134L318.42 87.2134L319.598 91.9845L325.491 93.1774H326.67L327.848 91.9845H329.027L330.205 90.7917V91.9845L329.027 93.1774H330.205L331.384 91.9845V87.2134L329.027 82.4422ZM383.199 109.855L385.556 111.048V114.626L389.091 117.012L391.448 113.433L389.091 106.277V103.891L387.913 101.506H385.556V103.891H383.199V109.855ZM350.23 108.662L346.695 107.469L341.98 106.277L336.088 107.469L337.266 108.662V111.048H334.909L333.731 109.855V108.662L334.909 107.469L331.373 106.277H326.659L325.481 105.084L318.409 106.277L311.338 105.084L310.159 103.891V105.084H308.981V108.662L307.802 106.277L305.445 105.084L304.267 103.891L299.552 107.469L294.838 112.241L288.945 109.855L284.231 106.277L285.41 102.698L286.588 100.313L284.231 95.5417L288.945 93.1561L292.481 91.9633L298.374 95.5417L300.731 93.1561V91.9633H301.909V84.8065L298.374 80.0354L293.66 76.457L292.481 72.8787L291.302 71.6859V81.2175L284.231 87.1815L278.338 91.9526V99.1093L273.624 102.688L271.267 105.073V108.652L275.981 115.808L280.695 125.351L281.874 126.543V127.736H284.231V126.543L286.588 125.351H288.945L291.302 126.543L293.66 128.929H301.899L311.317 130.122L313.674 128.929L314.853 127.736L316.031 128.929H320.745L326.638 133.7L333.71 139.664L369.045 161.124L371.402 163.509L378.474 162.316L386.713 159.931V158.738L387.892 156.352L389.07 157.545H390.249L399.677 152.774L400.856 151.581H403.213L405.486 152.476L407.917 149.196V146.81L406.738 145.617L404.381 142.039L409.095 137.268V134.882L405.56 128.918L400.845 124.147L394.953 119.376L392.595 116.991L390.238 119.376L389.06 118.183H387.881L386.703 119.376V126.533L385.524 133.689L384.346 132.497H383.167L380.81 133.689L378.453 132.497H377.274L376.096 134.882L372.56 136.075L371.381 133.689L372.56 131.304L374.917 130.111H376.096V127.726L374.917 125.34H376.096L367.856 124.147L360.785 125.34L358.428 121.762L351.356 119.376L346.642 120.569V121.762L345.464 122.954L344.285 120.569H341.928L340.749 121.762H339.571L340.749 120.569V118.183L338.392 116.991H336.035L337.214 115.798V114.605H339.571L341.928 115.798L344.285 111.026H345.464L346.642 109.834V108.641L350.23 108.662ZM117.033 122.965V121.772H113.498L111.141 122.965L109.962 120.58L108.31 119.387L106.069 120.58H104.185L98.2922 122.965L99.1129 127.736L100.291 131.315L99.2287 132.507H97.8186L97.7029 133.7L97.4714 134.893L93.9357 136.086L93.3464 138.471L91.2208 140.857L91.4523 143.242L92.9886 145.628L94.6407 146.821L101.239 149.206L107.721 150.399L109.962 152.785H111.141L118.212 150.399L120.569 148.014L124.105 150.399L126.462 153.978H127.64L128.819 155.17L131.176 156.363L132.355 155.17H133.533L135.89 156.363L137.069 158.749H138.247L140.605 159.941V152.785L139.426 151.592H138.247V150.399H137.069V148.014L138.247 144.435L135.89 140.857L134.712 138.471V134.893L132.355 132.507V131.315L131.176 130.122H126.462V125.351L124.105 122.965V121.772L119.391 124.158L117.033 122.965ZM6.21718 87.2027L4.92282 88.3955H5.03862L6.21718 87.2027ZM17.8765 90.7812L11.1629 89.5883L9.51084 87.2027L7.6272 86.0099L6.21718 87.2027L5.03862 88.3955H5.5121L6.80645 91.974L4.10207 90.7812L0.566406 89.5883L5.5121 99.12L11.1629 107.459L14.4565 112.23H15.5193L16.8137 111.037L20.9386 109.844L19.8758 101.506L19.5181 97.9272L19.4023 94.3489L18.813 93.1561H17.2767L14.6881 95.5417L12.573 93.1561L11.7522 90.7705L17.8765 90.7812ZM207.719 35.9555L203.005 29.9915L199.469 38.3305L194.755 44.2944H191.22L187.684 46.68H186.505V47.8727L185.327 49.0655L181.791 50.2583L180.612 53.8367L181.791 55.0294L177.077 59.8006L175.898 64.5717L172.363 65.7645H168.827L167.648 74.1034L166.47 83.635L151.159 86.0206L134.67 87.2134V89.5989L135.859 100.323L134.67 106.287L137.027 109.291L138.363 114.211L140.562 117.672L145.277 117.001H152.348L153.527 118.194H155.884L154.705 115.808V114.616H155.884L160.598 119.387H162.955L164.134 120.58L165.312 125.351L166.491 126.543L173.552 127.736H175.909L181.802 133.7L184.159 131.315L185.337 132.507L187.694 128.929L188.873 125.351V124.158L193.587 119.387L191.23 115.808L190.051 111.037L192.409 108.652L193.587 106.266L195.944 99.1093L198.301 101.495L200.659 100.302L203.016 97.9166V95.531L204.194 93.1454V89.5671H201.837V83.603L203.016 82.4103L207.73 76.4464L208.908 74.0608L210.087 70.4824H211.266L212.444 71.6752L215.98 68.0969V69.2897H217.158L218.337 62.133L215.98 54.9761H219.515L217.158 50.205L218.337 49.0122H217.158L215.98 47.8195L212.444 49.0122L211.266 45.4339L212.444 41.8555L207.719 35.9555Z" fill="#B01736"/>
<path d="M333.741 139.654L326.67 133.69L320.777 128.919H316.062L314.884 127.726L313.705 128.919L311.348 130.111L301.93 128.919H293.691L286.62 138.461L285.441 142.039H287.798L288.977 143.232L286.62 150.389L287.798 152.774V153.967L285.441 156.353L281.905 152.774H280.727L279.548 153.967L278.37 152.774V151.582H277.191L274.834 152.774L273.655 150.389L271.298 152.774L270.12 151.582V148.003L261.88 142.039L253.641 139.654V144.425L255.998 149.196V155.16L253.641 158.738V161.124L254.82 163.509L251.284 164.702H248.927L245.391 169.473L244.212 174.245L245.391 175.437H247.748L248.927 176.63H251.284V175.437L252.462 173.052H257.177L258.355 171.859H259.534L261.891 176.63L257.177 181.401L251.284 186.172L250.105 189.751L248.927 192.136L241.855 194.522H239.498L237.141 195.715L233.605 201.679V205.257L228.891 206.45L226.534 210.028L228.891 212.414L230.07 214.799V217.185L231.248 220.763L230.07 221.956V224.342L233.605 221.956L235.963 219.57H238.32V218.378L243.034 220.763L246.57 221.956L251.284 220.763H254.82V221.956L257.177 220.763L255.998 217.185L258.355 211.221L265.427 213.607H267.784L270.141 215.992L268.962 218.378L272.498 220.763L274.855 219.57L277.212 223.149L279.569 225.534L281.926 224.342H286.641V225.534H288.998L290.176 224.342H291.355L292.533 225.534L294.891 224.342L298.426 223.149L305.498 230.306L317.273 231.498V230.306L319.63 229.113L320.808 226.727L321.987 223.149H324.344L325.523 220.763L324.344 219.57V218.378L329.058 208.835L338.487 199.293L339.665 192.136L340.844 190.944L343.201 189.751L344.38 188.558H345.558L347.915 187.365C347.915 187.365 349.858 186.541 350.272 187.365C350.482 187.781 350.272 188.558 350.272 188.558L351.451 190.944L358.522 187.365V186.172L362.058 184.98L364.415 183.787H367.951L370.308 184.98L373.844 181.401L377.379 180.209V179.016L379.736 176.63H383.272L387.986 175.437H392.7L393.879 173.052L395.058 171.859L400.529 168.536L405.654 165.895L404.476 162.317L402.118 158.738L403.297 153.967H404.476L405.58 152.487L403.307 151.592H400.95L399.772 152.785L390.343 157.556H389.165L387.986 156.363L386.808 158.749V159.942L378.568 162.327L371.497 163.52L369.14 161.135L333.741 139.654ZM245.412 0.193359V0.789816L243.055 2.57892L239.519 1.15188L237.162 0.321153L235.984 1.27967L233.626 2.58958L232.448 0.683213L231.269 0.56608L228.912 0.20402V2.58958L224.198 4.97515L220.662 9.74628V12.1318L219.484 18.0959L218.305 22.867L214.77 24.0598H210.055L202.984 30.0237L212.412 41.9515L211.234 45.5299L212.412 49.1084L215.948 47.9156L217.127 49.1084H218.305L219.484 50.3012V45.5299L220.662 43.1443V38.3732L223.019 43.1443V44.3371H221.841V50.3012H224.198L225.377 56.2651H224.198V57.4578L225.377 58.6506H226.555V64.6145L228.912 68.1929L232.448 72.964L235.984 78.9281L238.341 83.6992L250.116 87.2775L257.187 86.0848L263.08 83.6992L264.258 82.5064V80.1208L266.616 77.7353L268.973 74.1568L267.794 71.7712L266.616 70.5785L268.973 63.4218H266.616V56.2651L265.437 55.0723V56.2651L264.258 47.9261V34.8162L263.08 32.4306H261.901L263.08 31.2378L261.901 30.045V28.8523H259.544L258.366 25.2739L257.187 22.8883L254.83 21.6954L252.473 22.8883L251.294 21.6954L253.651 20.5026L256.009 18.1171L253.651 16.9243L254.83 15.7315L253.651 14.5387L251.294 13.3459H252.473L253.651 12.1532L252.473 10.9604V9.7676L254.83 12.1532L258.366 13.3459L257.187 9.7676L256.009 4.99647V6.18925H252.473V7.38204L251.294 6.18925V4.99647L250.116 2.61091V1.41812L248.937 2.61091V3.80369H246.58L245.402 0.342473L245.412 0.193359ZM120.569 86.0101L118.212 87.2029L120.569 89.5885H122.926L124.105 90.7814H122.926L121.747 91.9742V93.167H120.569V97.9381L121.747 100.324H124.105L127.64 101.516L129.997 106.288L127.64 109.866L124.105 112.251L119.39 109.866L118.212 106.288L119.19 102.315L117.033 100.324L115.855 101.516L112.319 97.9381L111.14 99.1309H109.962V96.7453H108.552L107.731 97.9381L105.963 99.1309H106.552L105.142 101.516L103.027 100.324L101.028 101.516H98.9023L100.081 105.095L101.028 107.48L102.207 109.866L103.269 112.251L102.449 117.023L104.216 120.601H105.984L108.341 119.408L109.993 120.601L111.172 122.987L113.529 121.794H117.065V122.987L119.422 124.179L124.136 121.794V122.987L126.493 125.372V130.143H131.208L132.386 131.336V132.529L134.743 136.107V138.493L135.922 140.878L138.279 144.457H141.815L144.172 145.65L146.529 143.264H148.886L150.064 142.071H148.886V140.878L150.064 139.686V136.107L153.6 133.722L157.136 132.529L159.493 130.143V128.951L160.672 127.758H164.207L166.564 126.565L165.386 125.372L164.207 120.601L163.029 119.408H160.672L155.957 114.637H154.779V115.83L155.957 118.215H153.6L152.422 117.023L134.754 90.8026V87.2242H126.514L120.569 86.0101Z" fill="#B01736"/>
<path d="M184.174 152.763H182.996L180.638 151.57V149.184L179.46 147.991H178.281V143.22L179.46 140.835L181.817 133.678L175.924 127.714H173.567L168.853 126.042L162.96 127.714H160.603L159.424 128.907V130.099L157.067 132.485L153.532 133.678L149.996 136.063V139.642L148.817 140.835V142.027H149.996L148.817 143.22H146.46L144.103 145.606L141.746 144.413H138.21L137.032 147.991V150.377H138.21V151.57H139.389L140.567 152.763V159.919H144.103L145.282 168.269L154.7 169.461L158.235 171.847L159.414 170.654H160.592L164.128 174.233V180.197L168.842 186.161L173.557 184.968V183.775L174.735 182.582L181.806 184.968L184.164 182.582V184.968H185.342L186.521 186.161V189.739L191.235 190.932V192.124L192.414 193.317L194.771 194.51L197.128 199.281L205.367 205.245H206.546L207.724 204.052L210.081 205.245H211.26L213.617 202.86L215.974 204.052L217.153 206.438L219.51 204.052L218.331 201.667L220.688 199.281H217.153L215.974 198.088V195.703L218.331 194.51L220.688 195.703L225.403 192.124L227.76 189.739L226.581 184.968L224.224 183.775V180.197H217.153L213.617 175.426L211.26 171.847L208.903 173.04H205.367V170.654L203.01 169.461H201.831L200.653 167.076V165.883L198.296 163.498H197.117V162.305L194.76 163.498H191.224V161.112L186.51 156.341H185.332V155.148L184.174 152.763ZM101.022 107.468L100.075 105.083L98.8969 101.505L96.3083 105.083L93.6039 107.468H89.9525L88.0689 109.854L88.8897 111.047L89.479 112.24L87.7111 115.818L86.059 114.625L86.5326 113.432L86.8903 112.24H86.1853L85.9538 113.432H84.7752L83.8282 112.24L81.7131 113.432H79.4717V114.625H79.9453L79.8295 115.818L78.6509 119.396L75.9466 121.782L73.0001 122.975L73.2317 124.168L73.3474 125.36L70.401 128.939L66.5181 133.71H66.4023L66.5181 134.903L67.4652 136.095L68.6437 137.288L68.1702 138.481L68.0544 139.674H69.1172L70.6536 142.059L69.2435 145.638L68.2964 146.83H70.0643L71.0114 148.023H73.0107L75.1258 153.987V156.373L75.715 157.566H78.188L79.84 159.951L85.8486 155.18L86.5536 151.602V149.216L88.6792 146.83L88.0899 145.638H87.9742L89.6263 144.445L91.5099 143.252L91.2783 140.867L93.3934 138.481L93.9827 136.095L97.5184 134.903L97.7499 133.71L97.8656 132.517H99.2757L100.339 131.324L99.16 127.746L98.3392 122.975L104.232 120.589L102.464 117.011L103.285 112.24L102.222 109.854L101.022 107.468Z" fill="#B01736"/>
<path d="M365.548 69.3208V66.9353H363.191V69.3208L364.369 70.5136L363.191 75.2848L366.726 71.7064V70.5136L365.548 69.3208ZM392.634 43.1008L389.098 41.908H385.562V44.2936H384.384V46.6792L382.027 45.4864H378.491V47.8719L379.669 49.0647H378.491V50.2575L377.312 51.4503L373.777 53.8359L371.42 56.2214L370.241 55.0286V53.8359L369.062 52.6431L366.705 53.8359L364.348 56.2214L363.17 59.7998V63.3781H365.527V64.5709L367.884 62.1853V63.3781L366.705 65.7637L369.062 68.1494L367.884 72.9205L369.062 74.1133L370.241 76.4989H367.884L366.705 75.3061V76.4989L365.527 77.6917H364.348V80.0772L365.527 82.4628H367.884L369.062 84.8483V87.2339H371.42V86.0411H372.598L374.955 90.8123L376.134 92.0051V89.6195L377.312 88.4267V90.8123L379.669 94.3906V92.0051L380.848 93.1978H383.205L380.848 86.0411V80.0772L382.027 74.1133L383.205 69.3422L385.562 64.5709H386.741L390.277 57.4142L391.455 58.607L393.812 57.4142V56.2214L392.634 55.0286H393.812L396.169 56.2214L397.348 55.0286V53.8359H396.169L394.991 52.6431L398.526 53.8359V51.4503H400.884L399.705 47.8719L397.348 45.4864V44.2936L396.169 43.1008H392.634ZM419.719 16.8808L417.362 19.2664V20.4591H418.541V21.6519L419.719 22.8447H417.362L415.005 24.0375H416.184L417.362 25.2303V26.4231L418.541 27.6158L416.184 26.4231L412.648 25.2303L411.47 26.4231L412.648 28.8086H407.934L409.112 30.0014V31.1942H407.934L406.755 30.0014V32.387L407.934 34.7725L404.398 31.1942L402.041 32.387V34.7725V33.5797L399.684 32.387L397.327 33.5797L396.148 34.7725L394.97 33.5797L397.327 37.1581L402.041 38.3509V39.5437H394.97L392.613 40.7364V41.9292H396.148L398.505 44.3149L399.684 46.7005L400.863 45.5077V49.086L403.22 50.2788L404.398 49.086V50.2788L405.577 49.086L407.934 47.8933L406.755 45.5077V43.1221L407.934 46.7005H410.291L411.47 45.5077L410.291 43.1221L409.112 41.9292V40.7364L411.47 41.9292L412.648 44.3149V45.5077L415.005 40.7364L413.827 39.5437V38.3509H415.005V37.1581H416.184V43.1221L418.541 40.7364L420.898 39.5437L423.255 35.9653L422.077 34.7725V33.5797H423.255V35.9653L425.612 37.1581L426.791 35.9653L427.969 33.5797L429.148 37.1581L430.327 35.9653V33.5797H431.505V35.9653L433.862 34.7725V33.5797L435.041 34.7725L436.219 33.5797V32.387L435.041 31.1942H437.398L439.755 30.0014L443.291 28.8086V30.0014L444.469 28.8086H445.648L449.183 27.6158H469.208L480.984 26.4231L484.519 24.0375L486.876 20.4591L489.233 18.0736L488.055 14.4952L482.162 12.1095L475.091 14.4952V15.688L473.912 16.8808H472.734V15.688H457.423L453.887 12.1095L451.53 10.9167L450.352 13.3024L446.816 14.4952H447.994V13.3024H445.637L443.28 14.4952L440.923 13.3024H437.387L435.03 14.4952H432.673V15.688H429.137V18.0736L427.959 19.2664L425.602 16.8808L423.245 19.2664L420.888 20.4591V19.2664L419.719 16.8808ZM261.908 94.3588H260.73L259.551 95.5516H256.015L252.48 96.7443L250.123 95.5516L248.944 94.3588L245.408 95.5516H240.694L235.98 99.1299L233.623 108.672H232.444L230.087 106.287V107.479H228.909L226.551 106.287L225.373 102.708L223.016 99.1299L220.659 97.9371L219.48 99.1299V97.9371L220.659 96.7443H223.016L221.837 90.7804L218.301 86.0091L213.587 88.3947L212.409 97.9264H213.587L215.944 99.1192L213.587 102.698L210.052 106.276L208.873 105.083H207.694V106.276L205.337 102.698L202.98 97.9264L200.623 100.312L198.266 101.505L195.909 99.1192L193.552 106.276L192.373 108.661L190.016 111.047L191.195 115.818L193.552 119.397L188.837 124.168V125.361L187.659 128.939L185.302 132.517L184.123 131.325L181.766 133.71L179.409 140.867L178.23 143.252V148.024H179.409L180.588 149.216V151.602L182.945 152.795H184.123L185.302 155.18V156.373H186.48L191.195 161.144V163.53H194.73L197.087 162.337V163.53H198.266L200.623 165.915V167.108L201.802 169.494H202.98L205.337 170.686V173.072H208.873L211.23 171.879L213.587 175.458L217.123 180.229H224.194V183.807L226.551 185L227.73 189.771L233.623 190.964L234.801 193.349L237.158 195.735L239.516 194.542H241.873L248.944 192.157L250.123 189.771L251.301 186.193L257.194 181.422L261.908 176.65L259.551 171.879H258.373L257.194 173.072H252.48L251.301 175.458V176.65H248.944L247.765 175.458H245.408L244.23 174.265L245.408 169.494L248.944 164.723H251.301L254.837 163.53L253.658 161.144V158.759L256.015 155.18V149.216L253.658 144.445V139.674L261.898 142.06L270.137 148.024V151.602L271.316 152.795L273.673 150.409L274.851 152.795L277.208 151.602H278.387V152.795L279.566 153.988L280.744 152.795H281.923L285.458 156.373L287.815 153.988V152.795L286.637 150.409L288.994 143.252L287.815 142.06H285.458L286.637 138.481L293.708 128.939L291.351 126.553L288.994 125.361H286.637L284.28 126.553V127.746H281.923V126.553L280.744 125.361L276.03 115.818L271.316 108.661V105.083L265.423 109.854L266.601 107.469L264.244 105.083L266.601 103.89L261.908 94.3588Z" fill="#B01736"/>
<path d="M186.534 186.139L185.355 184.946H184.176V182.56L181.819 184.946L174.748 182.56L173.569 183.753V184.946L168.855 186.139L167.677 188.524V189.717L159.437 193.296L152.366 198.067L160.605 202.838L162.962 201.645L164.141 200.452L166.498 205.223L171.212 207.609L170.034 209.995L168.855 211.187H172.391L174.748 214.766L179.462 217.151H184.176L187.712 213.573L191.248 217.151V219.537H193.605L198.319 220.73L200.676 219.537L204.212 217.151H205.391L207.748 218.344V217.151H212.462L214.819 215.958V212.38L215.998 208.802L217.176 206.416L215.998 204.031L213.64 202.838L211.283 205.223H210.105L207.748 204.031L206.569 205.223H205.391L197.151 199.26L194.794 194.488L192.437 193.296L191.258 192.103V190.91L186.544 189.717L186.534 186.139ZM144.484 206.395H140.601L141.78 201.624L140.601 198.045L135.887 199.238L132.351 195.66V192.082L128.879 197.981L126.532 205.16L127.69 206.331L128.879 208.706L132.425 212.295L129.994 219.505L133.53 224.276L138.244 230.24L142.958 229.047L146.494 226.662L150.03 225.469H155.923V224.276L157.101 223.083V220.698L152.387 218.312V214.734H151.208L147.673 211.155L145.316 206.384H144.484V206.395Z" fill="#B01736"/>
<path d="M124.115 150.377L120.58 147.991L118.222 150.377L111.151 152.763H109.973L108.794 151.57L107.731 150.377L101.249 149.184L94.6512 146.799L92.9991 145.606L91.4628 143.22L89.5792 144.413L87.9272 145.606H88.0429L88.6322 146.799L86.5066 149.184V151.57L85.8015 155.148L79.793 159.919L84.7387 165.883L89.3267 171.847L95.5667 173.04L100.039 174.233L100.397 176.618L100.87 177.811L102.638 180.197L104.174 181.389L107.468 180.197L110.004 178.951H111.162L112.351 177.779L114.697 182.54L121.706 184.968L122.937 186.118L125.241 183.775L129.955 186.161H131.134L132.313 188.546V190.932L135.848 186.161L139.384 184.968L138.205 183.775V177.811L139.384 175.426V173.04H141.741L144.098 170.654L142.92 169.462L145.277 168.269H147.634L148.812 161.112L144.098 159.919H140.562L138.205 158.727H137.027L135.848 156.341L133.491 155.148H132.313L131.134 156.341L128.777 155.148L127.598 153.955H126.42L124.115 150.377Z" fill="#B01736"/>
<path d="M233.647 190.9L227.754 189.707L225.397 192.093L220.682 195.671L218.325 194.478L215.968 195.671V198.057L217.147 199.249H220.682L218.325 201.635L219.504 204.021L217.147 206.406L215.968 208.792L214.79 212.37V215.948L212.433 217.141H207.718V218.334L205.361 217.141H204.183L200.647 219.527L198.29 220.72L205.361 230.262L204.183 231.455L199.468 233.84L194.754 231.455L193.576 232.648L192.397 235.033L190.04 237.419L192.397 239.804L193.576 242.19H197.111L199.468 244.575L200.647 243.383H201.825L203.004 244.575L205.361 245.768V246.961L206.54 245.768H208.897V246.961L207.718 249.346L208.897 250.539H210.075V255.311L211.254 256.503L208.897 258.889L212.433 260.082L211.254 263.66V266.046H212.433V267.238H211.254L212.433 270.817L214.79 272.009L215.968 268.431L217.147 263.66H219.504L220.682 262.467L221.861 257.696L224.218 254.118H226.575L227.754 255.311H230.111L232.468 254.118L234.825 246.961L239.539 244.575L241.897 246.961L244.254 248.154H246.611L247.789 249.346V250.539L248.968 251.732L251.325 252.925L252.504 250.539L254.861 249.346L256.039 245.768L257.218 244.575L254.861 242.19V238.611L260.753 235.033L264.289 230.262L259.575 226.684L254.861 221.912V220.72H251.325L246.611 221.912L243.075 220.72L238.361 218.334V219.527H236.004L233.647 221.912L230.111 224.298V221.912L231.289 220.72L230.111 217.141V214.756L228.932 212.37L226.575 209.985L228.891 206.45L233.605 205.257L233.647 201.635L237.182 195.671L234.825 193.286L234.057 191.72L233.647 190.9Z" fill="#B01736"/>
</g>
</svg>
