<svg width="165" height="179" viewBox="0 0 165 179" fill="none" xmlns="http://www.w3.org/2000/svg">
<g opacity="0.5">
<path d="M72.2843 61.342L71.1057 58.9564L66.3915 57.7637V55.378L62.8558 52.9924L60.4987 49.4141L55.7845 56.5708L53.4274 55.378H48.7131L49.8917 60.1492L48.7131 64.9204L49.8917 67.3059V69.6915L46.356 74.4626L42.8203 76.8482L46.356 81.6193L53.4274 82.8121L54.6059 84.0049V85.1977L56.963 81.6193L59.3201 75.6554H62.8558L65.2129 74.4626H66.3915L68.7486 75.6554H71.1057L73.4629 78.041L76.9985 80.4265L78.1771 79.2338H80.5342L82.8913 75.6554L84.0699 73.2698L81.7128 69.6915V66.1131L80.5342 63.7276H74.6414L72.2843 61.342ZM145.302 39.8825L142.945 38.6897L141.767 37.4969V36.3041L140.588 35.1113H138.231L135.874 33.9185L133.517 31.533L128.803 33.9185L126.445 41.0752L124.088 42.268H121.731L120.553 41.0752H118.195L115.838 44.6536L114.66 49.4247L113.481 50.6175H111.124L109.946 55.3886L108.767 58.967L109.946 60.1599H108.767L106.41 61.3527H107.588L111.124 64.931H114.66V66.1238H115.838L117.017 67.3166L119.374 66.1238V64.931L118.195 63.7382L120.553 62.5455L122.91 63.7382H121.731V68.5094L122.91 67.3166L125.267 68.5094L121.731 70.8949H118.195L119.374 73.2805H120.553L122.91 75.6661L124.088 78.0516L126.445 79.2444L128.803 78.0516L135.874 75.6661L134.695 73.2805L133.517 69.7022H132.338L131.16 70.8949V64.931L132.338 63.7382H133.517L134.695 62.5455V61.3527L135.874 62.5455L137.052 61.3527L141.767 50.6282L145.302 39.8825Z" fill="#B01736"/>
<path d="M58.1537 39.8825L54.618 41.0752L52.2609 42.268H51.0823V41.0752L46.3681 43.4608L44.011 38.6897L41.6538 30.3507L39.2967 29.1579H36.9396L33.4039 25.5796V29.1579L31.0468 30.3507L29.8682 31.5435H27.5111L25.1856 32.076L27.5111 32.7364L28.6897 35.122H26.3326L25.154 33.9292V35.122L22.7969 36.3148L23.9754 39.8931L27.5111 42.2787L29.8682 39.8931L35.761 51.8209H38.1181L40.4753 49.4354L44.011 53.0137L48.7252 55.3993H53.4394L55.7966 56.5921L60.5108 49.4354L61.6893 44.6642H60.5108V43.4715H59.3322L58.1537 42.2787L59.3322 41.0859L58.1537 39.8825ZM144.136 79.2231L142.957 78.0303V76.8375H139.422L135.886 75.6447L128.815 78.0303L126.458 79.2231L124.1 78.0303L119.386 80.4159L114.672 81.6087L113.493 80.4159V81.6087L112.315 82.8014L113.493 83.9942V86.3799L112.315 88.7655L111.136 89.9583H108.779V91.1511L105.243 98.3077L104.065 101.886V109.043L106.422 111.428V112.621L107.601 113.814H108.779L107.601 117.392V119.778L108.779 122.164V123.356H106.422L108.779 130.513H109.958L112.315 128.127L115.85 129.32L113.493 132.899L111.136 135.284L113.493 137.67L111.136 143.634H112.315L113.493 146.019L114.672 147.212H119.386L121.743 148.405L122.922 149.598L127.636 150.79L129.993 146.019H132.35L133.529 143.634V142.441H134.707V140.055L138.243 136.477L145.314 124.549H147.672L150.029 123.356H151.207L153.564 125.742L154.743 123.356L158.279 119.778L160.636 116.2L154.743 115.007L147.672 116.2L146.493 115.007V113.814H141.779V112.621L139.422 104.282V103.09H140.6V101.897L141.779 100.704L145.314 99.5112L148.85 101.897L147.672 104.282V106.668L150.029 105.475L151.207 106.668V109.053H152.386L153.564 107.861L154.743 105.475L157.1 106.668H158.279L159.457 105.475H164.171L161.814 103.09L164.171 98.3184V94.7401H162.993L159.457 92.3545L154.743 89.9689L153.564 88.7762H152.386V85.1977H147.672V84.0049L146.493 80.4265H145.314L144.136 79.2231Z" fill="#B01736"/>
<path d="M40.4779 49.4251L38.1208 51.8107H35.7637L29.8709 39.8829L27.5138 42.2684L23.9781 39.8829L22.7996 36.3045H20.4425L19.2639 37.4973L18.0853 39.8829L16.9068 41.0756L18.0853 42.2684V44.654L15.7282 45.8468L16.9068 49.4251V55.389L15.7282 56.5818L13.3711 57.7746L15.7282 61.3531L19.2639 62.5459L20.4425 64.9314L21.621 66.1242H23.9781L26.3352 68.5098V69.7026L29.8709 72.0881L32.228 73.2809H33.4066V75.6665L36.9423 74.4737H39.2994L41.6565 75.6665L42.8351 76.8593L46.3708 74.4737L49.9064 69.7026V67.317L48.7279 64.9314L49.9064 60.1603L48.7279 55.389L44.0136 53.0035L40.4779 49.4251ZM86.4102 76.838L84.0531 73.2596L82.8745 75.6452L80.5174 79.2235H78.1603L76.9817 80.4163L73.4461 78.0307L71.0889 75.6452H68.7318L66.3747 74.4524H65.1962L62.839 75.6452H59.3033L56.9462 81.6091L54.5891 85.1876V86.3803L55.7677 88.7659V91.1515L56.9462 92.3443L59.3033 93.537V97.1154H60.4819V100.694L61.6605 101.887L62.839 106.658L64.0176 110.236L73.4355 109.043L76.9712 105.465L81.6854 103.079L82.864 101.887H85.2211L87.5783 99.501L89.9354 95.9226L94.6496 93.537L97.0067 88.7659L100.542 87.5731L98.1853 85.1876H97.0067V81.6091L93.4711 78.0307H91.1139L88.7568 79.2235L87.5783 78.0307L86.4102 76.838Z" fill="#B01736"/>
<path d="M102.906 45.8459L100.549 47.0387L97.0137 44.6531H92.2994V45.8459H88.7637L86.4066 47.0387H80.5138V48.2315L74.621 49.4243V50.6171L75.7996 51.8098L74.621 55.3882H69.9068L68.7282 54.1954H67.5497L66.3711 55.3882V57.7737L71.0854 58.9665L72.2639 61.3522L74.621 63.7378H80.5138L81.6924 66.1233V69.7017L86.4066 76.8584L88.7637 79.2439L91.1209 78.0512H93.478L97.0137 81.6295V85.2079H98.1922L100.549 87.5934L102.906 91.1719H104.085V92.3647L102.906 93.5575V95.943L105.264 98.3286L108.799 91.1719V89.9791H111.156L112.335 88.7862L113.514 86.4006V84.0151L112.335 82.8223L113.514 81.6295V80.4367L114.692 81.6295L119.406 80.4367L124.121 78.0512L122.942 75.6656L120.585 73.28H119.406L118.228 70.8945H121.763L125.299 68.5089L122.942 67.3161L121.763 68.5089V63.7378H122.942L120.585 62.545L118.228 63.7378L119.406 64.9306V66.1233L117.049 67.3161L115.871 66.1233H114.692V64.9306H111.156L107.621 61.3522H106.442L108.799 60.1594H109.978L108.799 58.9665L106.442 57.7737L105.264 54.1954H106.442V53.0026H105.264V50.6171L106.442 47.0387L102.906 45.8459Z" fill="#B01736"/>
<path d="M99.3636 33.9296V32.7369L97.0065 31.5439L95.8279 30.3512H94.6494L93.4708 31.5439L91.1242 29.169H87.5886L86.41 26.7835L84.0529 24.3979L80.5172 22.0123L76.9815 20.8195L74.6244 23.2051L73.4459 22.0123H72.2673L71.0887 24.3979L72.2673 26.7835H71.0887L69.9102 29.169L71.0887 30.3618L69.9102 32.7474H73.4459L74.6244 33.9402L80.5172 35.1331L81.6958 38.7114V39.9042L82.8743 41.097V43.4826L84.0529 47.0609H86.41L88.7671 45.8681H92.3028V44.6754H97.017L100.553 47.0609L102.91 45.8681L105.267 43.4826L104.088 42.2898V37.5187H102.899L101.721 36.3259L102.899 33.9402V32.7474H100.542L99.3636 33.9296Z" fill="#B01736"/>
<path d="M74.631 33.9297L73.4524 32.7369H69.9167L68.7382 33.9297L66.3811 35.1225V38.7008L67.5596 41.0864H64.0239L61.6668 42.2792V43.472H60.4883V44.6647H61.6668L60.4883 49.4359L62.8454 53.0142L66.3811 55.3998L67.5596 54.207H68.7382L69.9167 55.3998H74.631L75.8095 51.8214L74.631 50.6287V49.4359L80.5238 48.2431V47.0503H84.0595L82.8809 43.472V41.0864L81.7023 39.8936V38.7008L80.5238 35.1225L74.631 33.9297Z" fill="#B01736"/>
<path d="M80.5268 1.74495L78.1697 4.13052H73.4555L68.7412 1.74495V2.93773H67.5627L65.2056 4.13052L64.027 6.51608L61.6699 7.709L56.9556 5.3233L53.42 8.90178L52.2414 7.709H51.0628V10.0946L49.8843 11.2873V12.4801H43.9915L40.4558 13.6729L36.9201 16.0585L32.2059 17.2513V19.6368L31.0273 20.8296H32.2059L34.563 22.0224V24.408L33.3845 25.6007L36.9201 29.1791H39.2773L41.6344 30.3719L43.9915 38.7108L46.3486 43.482L51.0628 41.0964V42.2892H52.2414L54.5985 41.0964L58.1342 39.9036L59.3127 41.0964L58.1342 42.2892L59.3127 43.482H61.6699V42.2892L64.027 41.0964H67.5627L66.3841 38.7108V35.1325L68.7412 33.9396L69.9198 32.7468L71.0984 30.3612L69.9198 29.1684L71.0984 26.7829H72.2769L71.0984 24.3973L72.2769 22.0117H73.4555L74.6341 23.2045L76.9912 20.819L80.5268 22.0117L84.0625 24.3973L86.4196 22.0117L87.5982 19.6262L88.7767 18.4334L93.491 20.819L98.2052 18.4334L99.3838 17.2406L92.3124 7.69834L87.5982 6.50555H85.2411V4.11985L81.7054 0.541504L80.5268 1.74495ZM107.613 117.36L108.791 113.782H107.613L106.434 112.589V111.396L104.077 109.011V101.854L104.74 99.8518L105.256 98.2757L102.898 95.8901V93.5045L104.077 92.3117V91.119H102.898L100.541 87.5406L97.0056 88.7334L94.6485 93.5045L89.9343 95.8901L87.5772 99.4684L85.22 101.854H82.8629L81.6843 103.047L76.9701 105.432L73.4344 109.011L64.0165 110.204V111.396L66.3736 114.975V117.36L69.9093 119.746H75.8021V125.71L79.3377 126.903L81.6949 129.288L82.8734 131.674V134.059L85.2305 143.602L84.052 144.794V147.18L86.4091 145.987L87.5877 143.602L88.7662 144.794H89.9448V148.373L92.3019 150.758L93.4805 153.144H97.0162L99.3733 150.758L104.088 151.951L108.802 154.337L109.98 156.722V157.915H112.337L114.695 156.722L117.052 159.108H119.409L120.587 162.686L119.409 165.072L125.302 173.411H128.837L131.194 171.025L132.373 173.411V174.604L140.612 178.182L147.684 172.218L144.148 166.254L140.612 161.483H141.791V160.29L140.612 157.904V155.519H139.434L141.791 151.941L144.148 150.748L140.612 147.169L137.077 145.977L135.898 147.169H134.72V144.784L133.541 143.591L132.362 145.977H130.005L127.648 150.748L122.934 149.555L121.755 148.362L119.398 147.169H114.684L113.505 145.977L112.327 143.591H111.148L113.505 137.627L111.148 135.242L113.505 132.856L115.863 129.277L112.327 128.085L109.97 130.47H108.791L106.434 123.314H108.791V122.131L107.613 119.746V117.36Z" fill="#B01736"/>
<path d="M32.243 73.2588L29.8859 72.066L26.3502 69.6805V68.4877L23.9931 66.1021H21.636L20.4574 64.9093L19.2788 62.5238L15.7432 61.331L13.386 57.7526L7.65107 60.0742L1.8425 62.5238L2.07397 66.1021L0.421875 70.8733L1.12695 75.6444L3.95754 78.0299H7.49327V79.2227L8.67182 80.4155H11.0289V82.8011H12.2075L13.386 83.9939L14.5646 87.5723L12.2075 91.1507L9.85038 92.3435L11.0289 93.5362H12.2075V94.729L13.386 95.9218L14.5646 94.729H15.7432L16.9217 95.9218V98.3074L19.2788 99.5002H21.636L22.8145 103.078L25.1717 107.85V109.042L28.7073 115.006V122.163L34.6001 119.778L36.9572 112.621H38.1358V113.814L39.3144 115.006H45.2072L46.3857 113.814L47.5643 111.428L56.9822 113.814L61.6965 111.428L62.875 112.621H64.0536V110.235L62.875 106.657L61.6965 101.886L60.5179 100.693V97.1146H59.3394V93.5362L56.9822 92.3435L55.8037 91.1507V88.7651L54.6251 86.3795V83.9939L53.4466 82.8011L46.3752 81.6083L42.8395 76.8372L41.6609 75.6444L39.3038 74.4516H36.9467L33.411 75.6444V73.2588H32.243Z" fill="#B01736"/>
</g>
</svg>
