<svg width="129" height="132" viewBox="0 0 129 132" fill="none" xmlns="http://www.w3.org/2000/svg">
<g opacity="0.6">
<path d="M62.5665 74.4332H60.6829L59.1466 75.6259H57.263L56.3159 76.8187L55.8424 78.0115H53.601L52.0752 76.8187L50.0759 74.4332L45.1301 76.8187L44.4251 79.2043L43.8358 80.3971L43.9515 81.5899L43.5937 83.9754L42.1837 82.7826L38.3008 83.9754L39.0058 86.361L41.2472 88.7465L44.5408 89.9393L47.3715 91.1322V92.325H47.2557L48.3186 93.5178H49.7286L50.7914 95.9034L50.4336 97.0961L53.3801 99.4817L56.5579 103.06L58.7993 101.867L60.6829 100.674L59.5044 93.5178L63.6293 88.7465L68.8065 85.1682L68.333 82.7826L68.6908 80.3971L65.9864 79.2043H63.3978V76.8187L62.5665 74.4332Z" fill="#B01736"/>
<path d="M112.38 12.4508L113.558 11.2581L110.023 10.0652L108.844 11.2581L110.023 12.4508H112.38ZM120.63 13.6436H119.451L118.273 14.8364L114.737 12.4508L107.665 11.2581H105.308L102.951 12.4508L104.13 13.6436L101.773 16.0292H99.4156V18.4148L98.237 20.8003V26.7642L99.4156 27.957L95.8799 29.1498L92.3442 33.9209V38.6921L95.8799 42.2705L100.594 41.0778L106.487 38.6921L112.38 41.0778L119.451 36.3065L127.69 32.7282V31.5354L128.869 29.1498L124.155 23.1859V17.222L120.63 13.6436ZM61.5017 51.7808H59.6181L59.2603 52.9736L57.9661 54.1664H57.019L56.4297 52.9736L53.599 51.7808L50.8947 50.5881H50.5369L50.0634 51.7808H47.7063L45.7069 52.9736L45.1176 54.1664L44.2969 55.3592L45.1176 61.3231L47.7063 66.0944L49.0006 67.2871L50.1791 68.4799L49.9476 70.8655L50.0634 74.4438L52.0627 76.8294L53.599 78.0222H55.8404L56.314 76.8294L57.261 75.6366H59.1446L60.681 74.4438H62.5645L68.331 64.9121L68.2153 62.5265L70.0463 60.0771H71.2038L69.9831 58.9482V57.7554L70.0042 55.3592L70.0463 54.1557H68.289L65.7845 50.5667L64.3218 50.6094L62.6697 51.8022L61.5017 51.7808Z" fill="#B01736"/>
<path d="M87.6472 62.5053L85.2901 61.3126V62.5053L78.2924 62.4307L75.8722 63.6981H74.7147L73.515 62.5053L72.3365 63.6981L69.9794 64.8909H68.3273L62.5608 74.4225L63.3815 76.808V79.1936H65.9702L68.6745 80.3864L68.3167 82.7719L68.7903 85.1575L71.1474 86.3503H74.6831L75.8617 88.736L77.0402 89.9287H79.3973L80.5759 88.736L86.4687 92.3143H88.8258L91.1829 91.1215V89.9287L92.3615 91.1215H94.7186L93.5401 88.736L91.2145 88.0755L93.5401 87.543H95.8972L97.0757 86.3503L99.4329 85.1575V81.5792L100.611 80.3864V78.0008L98.2543 76.808H97.0757L98.2543 75.6153V73.2297L93.5401 67.2658L90.0044 62.4947H87.6472V62.5053ZM44.3036 55.3592L34.8751 52.9736L34.4016 54.1664H33.5808L30.9922 55.3592H29.1086L28.6351 56.552L28.2773 58.9375L25.4466 60.1303L24.1523 62.5159L25.6887 63.7088L27.688 64.9016V68.4799L30.7502 69.6727L32.9916 70.8655L33.1073 73.251L33.3388 76.8294L35.6959 79.2149L35.3381 80.4077V82.7933H37.106L37.4638 83.986H38.2845L42.1675 82.7933L43.5776 83.986L43.9353 81.6005L43.8196 80.4077L44.4088 79.2149L45.1139 76.8294L50.0596 74.4438L49.9439 70.8655L50.1753 68.4799L48.9968 67.2871L47.7025 66.0943L45.1139 61.3231L44.3036 55.3592Z" fill="#B01736"/>
<path d="M27.7018 66.0837V64.891L25.7024 63.6982L24.1661 62.5054H19.4519L18.6311 63.6982L16.516 61.3126L14.2746 63.6982L13.0961 64.891L10.981 63.6982L10.6232 64.891L10.3917 66.0837L7.44531 68.4693L9.44468 72.0477L12.1491 75.626L11.7913 76.8188L11.202 78.0116H11.7913L12.1491 79.2043H11.5597L10.9704 80.3971L13.2118 82.7827H17.4526L18.5154 85.1683L19.8097 86.361L25.3447 88.7466L32.416 92.3251L33.4789 93.5179L34.5417 95.9034L36.1938 93.5179L37.4881 91.1323L39.0244 92.3251H40.7922V91.1323L41.4973 89.9394L41.2658 88.7466L39.0244 86.361L38.3194 83.9755H37.4986L37.1408 82.7827H35.373V80.3971L35.7308 79.2043L33.3736 76.8188L33.1421 73.2404L33.0264 70.8549L30.785 69.6621L27.7229 68.4693L27.7018 66.0837Z" fill="#B01736"/>
<path d="M25.1142 35.0921L23.9356 36.285H19.1057L16.8643 35.0921H14.3914L12.3921 31.5138L8.85642 30.321L7.7936 31.5138L7.4358 33.8993L6.73078 35.0921H5.90997L4.14214 37.4778L2.25857 39.8634L1.19575 42.2489H0.375L1.32202 43.4417L1.09055 44.6345H1.79556L4.74195 45.8273L6.98332 44.6345L8.04614 45.8273L8.75116 48.2129L10.9925 49.4056L12.8761 50.5984L15.7068 54.1768L16.0646 57.7551L14.5387 60.1407L14.3073 63.7191L16.5486 61.3335L18.6637 63.7191L19.4845 62.5263H24.1987L25.4931 60.1407L28.3237 58.9479L28.6815 56.5623L29.155 55.3696H31.0386L33.6272 54.1768H34.448L34.9215 52.984L32.2171 48.2129L33.3957 47.0201L35.2793 44.6345L34.1008 38.6706L33.3957 33.8993L29.2707 35.0921H25.1142ZM80.5802 88.7358L79.4017 89.9286H77.0445L75.866 88.7358L74.6874 86.3501H71.1517L68.7946 85.1573L63.6174 88.7358L59.4924 93.5069L60.671 100.664L58.7873 101.856L56.546 103.049L57.4931 104.242L58.6716 105.435L58.0823 107.82L57.7246 109.013L59.8396 110.206L62.3125 111.399L63.6068 113.784L64.7854 116.17H66.5532L66.3217 117.363L67.858 118.556L73.5089 116.17L79.4017 113.784L81.7588 112.591L82.9373 111.399V105.435L81.7588 101.856L84.1159 100.664V98.2781L82.9373 97.0853L84.1159 95.8925L85.2945 93.5069L86.473 92.3141L80.5802 88.7358Z" fill="#B01736"/>
<path d="M60.8733 35.0285L59.842 35.0712L57.7374 33.8996L48.6667 36.2853L47.4882 35.0924L46.4254 33.8996L45.3626 35.0924H43.3633L41.5954 31.514L39.1225 30.3212L38.0598 31.514L37.2389 32.7068H35.3554L33.356 33.8996L34.061 38.6708L35.2396 44.6348L33.356 47.0203L32.1774 48.2131L34.8818 52.9842L44.3103 55.3698L45.1311 54.177L45.7204 52.9842L47.7197 51.7915H50.0768L50.5504 50.5987H50.9081L53.6125 51.7915L56.4432 52.9842L57.0324 54.177H57.9795L59.2738 52.9842L59.6316 51.7915H62.6937L64.3458 50.5987L65.8085 50.556L66.745 48.1811L67.9341 46.9777L66.7029 41.0777L63.1251 39.8423L60.8733 35.0285ZM32.4195 99.4604L34.3031 98.2676L34.5346 95.882L33.4717 93.4965L32.409 92.3037L25.3376 88.7253L19.8026 86.3398L18.5083 85.1469L17.4454 82.7613H13.2048L10.9634 80.3757L6.72266 87.5326L8.25902 88.7253L10.6161 91.1109L11.2054 93.4965L12.0262 95.882L12.142 97.0748L16.0249 98.2676L19.792 100.653H19.3185L18.4977 105.424V109.003L20.0341 110.195L21.5599 109.003L22.9699 113.774L25.8006 118.545L26.6214 117.352L27.6842 116.159L30.6306 110.195H31.8092L32.9877 109.003L32.7562 106.617V103.039H34.4083L35.5868 100.653H33.9347L32.4195 99.4604Z" fill="#B01736"/>
<path d="M47.3712 92.3035V91.1107L44.5406 89.918L41.2469 88.7252L41.4785 89.918L40.7734 91.1107V92.3035H39.0055L37.4692 91.1107L36.1749 93.4963L34.5228 95.8819L34.2913 98.2674L32.4078 99.4602L33.9441 100.653H35.5962L34.4176 103.039H32.7655V106.617L32.997 109.002L31.8184 110.195H30.6399L27.6935 116.159L26.6307 117.352L25.8099 118.545L27.1042 125.702L29.2193 126.894L30.1664 128.087L32.8707 130.473L37.7007 131.665L42.7622 130.473L43.583 129.28H44.53L47.1187 128.087L49.5915 125.702L49.2338 123.316L49.3495 120.93H52.2959L55.1266 122.123L56.8944 120.93H58.4307L59.4936 123.316L60.7879 124.509L63.85 125.702L66.4386 126.894L68.0907 122.123L67.8592 118.545L66.3229 117.352L66.5544 116.159H64.7865L63.608 113.774L62.3137 111.388L59.8408 110.195L57.7257 109.002L58.0835 107.81L58.6728 105.424L57.4942 104.231L56.5471 103.039L53.3693 99.4602L50.4229 97.0747L50.7806 95.8819L49.7178 93.4963H48.3078L47.245 92.3035H47.3712ZM60.0934 17.2218L55.6212 16.029L49.3811 14.8362L44.7826 8.87218L39.8369 2.90827L38.1848 0.522705H35.7119L34.1756 1.71549L31.587 4.10105L28.0513 7.6794H25.8099L25.6942 10.065L25.9257 11.2579H26.2835L26.3992 12.4507H25.3364L24.1578 13.6434L23.095 16.029L22.6215 19.6074L23.095 21.9929L22.9793 23.1857L21.8007 24.3785L20.3906 25.5713L21.0957 26.7641L22.39 27.9568L22.7477 31.5352L21.5692 32.728L21.8007 35.1135L21.3272 36.3063H23.9158L25.0944 35.1135H29.2193L33.3442 33.9207L35.3436 32.728H37.2272L38.048 31.5352L39.1108 30.3424L41.5837 31.5352L43.3515 35.1135H45.3509L46.4137 33.9207L47.4764 35.1135L48.655 36.3063L57.7257 33.9207L62.2821 29.1176L64.2078 24.3891L62.6714 23.1964L60.9036 20.8108L60.43 19.618L60.0934 17.2218Z" fill="#B01736"/>
</g>
</svg>
