<svg width="283" height="346" viewBox="0 0 283 346" fill="none" xmlns="http://www.w3.org/2000/svg">
<g opacity="0.3">
<path d="M178.009 275.581L175.652 274.388L173.298 272.006L173.294 272.002L172.116 274.388V275.581L170.937 277.966V280.352L168.58 281.545L167.402 283.93L168.58 286.316V288.701H163.866L161.509 289.894L159.152 292.28H156.795V294.665L157.973 295.858L155.616 298.244L154.438 304.208L155.616 306.593L156.795 310.172V311.364L155.616 312.557L154.438 314.943L153.259 318.521H157.973L160.33 316.136L161.509 317.328H165.045L162.687 319.714L160.33 320.907L163.866 328.064L168.58 336.402L172.116 332.824L173.294 334.017V335.21L175.652 334.017H178.009L181.544 335.21H185.08L186.259 334.017L194.498 330.438L201.569 328.053V329.246L202.748 332.824L203.926 334.017V336.402H205.105L206.284 337.595L205.105 338.788L209.819 345.945L213.355 342.366L219.248 338.788L220.426 341.173H221.605V338.788H231.023L232.201 337.595L235.737 335.21L236.916 332.824L238.094 331.631V329.246L236.916 326.86L239.273 322.089L238.094 320.896V317.318L236.916 313.739V312.547L238.073 310.151L232.201 310.161L231.023 308.968L229.844 312.547L227.487 313.739L227.024 313.271L226.309 312.557L225.13 311.364L227.487 308.979V304.186L228.666 302.994L227.487 300.608H223.951L222.773 301.801V302.994L221.594 301.801H214.523L213.344 297.03L205.105 295.837L199.212 286.305L191.015 281.651L192.12 280.416L178.009 275.581Z" fill="#B01736"/>
<path d="M42.5727 144.469L40.2156 142.084L37.8584 138.505L35.5013 139.698L33.3652 138.26L31.9656 137.313L33.1442 134.927L30.7871 132.541H28.43L21.3586 130.156L19.0015 136.12L20.1801 139.698L17.823 140.891L22.5372 145.662L27.2514 149.24L23.7157 154.012L17.823 157.59V161.168L20.1801 163.554L19.0015 164.747L17.823 168.325L15.4658 169.518L14.2872 171.903L10.7516 182.628L6.03734 193.352L4.85878 194.545L3.68022 193.352V194.545L2.50163 195.738H1.32309L0.144531 196.931V202.895L1.32309 201.702H2.50163L3.68022 205.28L4.85878 207.666L8.39444 208.859H11.9301V210.051L14.2872 212.437H15.4658L16.6444 216.015V217.208H21.3586L23.7157 214.822L24.8943 211.244V210.051L27.2514 208.859H33.1442L35.5013 205.28L37.8584 202.895L40.2156 205.28H43.7513V202.895L44.9298 199.316L50.8226 198.123L54.3583 194.545V189.774L56.7154 186.196L54.3583 180.232L57.894 176.653L62.6082 174.268L74.3938 162.34V159.954L76.7509 155.183L80.2866 150.412L68.5115 149.219L61.4402 142.062L57.9045 143.255L55.5474 144.448L54.3688 143.255H53.1902L52.0117 144.448H49.6546V143.255H44.9403L42.5727 144.469Z" fill="#B01736"/>
<path d="M33.1437 226.719V230.297L30.7866 235.068L33.1437 237.454H28.4294L27.2509 238.646H26.0723L23.7152 237.454L22.5366 239.839L21.3581 241.032H20.1795V238.646L19.001 237.454L16.6438 238.646V236.261L17.8224 233.875L14.2867 231.49L10.7511 232.683L9.57247 233.875V235.068H8.39392V236.261L10.7511 244.6V245.793H15.4653V246.985L16.6438 248.178L23.7152 246.985L29.608 248.178L27.2509 251.757L23.7152 255.335L22.5366 257.72L20.1795 255.335H19.001L16.6438 256.528H14.2867L7.21536 268.455L3.6797 272.034V274.419H2.50111V275.612L3.6797 276.805V279.191H4.85825L6.03681 277.998L9.57247 279.191L13.1082 282.769L10.7511 283.962L8.39392 287.54H9.57247L14.2867 288.733L19.001 287.54L20.1795 283.962V281.576L21.3581 280.383H22.5366L23.7152 279.191H24.8937L29.608 281.576L33.1437 283.962L30.7866 279.191L28.4294 275.612L30.7866 273.227H33.1437L30.7866 272.034L28.4294 269.648H29.608L31.9651 267.263L30.7866 266.07H35.5008V267.263L36.6794 268.455L40.2151 269.648L42.5722 270.841V272.034L43.7507 273.227L44.9293 272.034H48.465L52.0006 273.227V270.841L50.8221 268.455L53.1792 267.263V264.877L49.6435 262.492L44.9293 258.913L48.465 255.335L49.6435 252.949V251.757H50.8221L52.0006 250.564H54.3577L55.5363 245.793V239.829L54.3577 237.443V236.25L53.1792 235.057L50.8221 233.865H49.6435L48.465 235.057L42.5722 231.479L36.6794 226.708V225.515H34.3222L33.1437 226.719ZM130.901 217.176L126.187 218.369L123.83 220.755H122.651L120.294 219.562H114.401L113.223 218.369H112.044L109.687 219.562L108.508 221.948H104.973L101.437 220.755V220.777V221.948L100.258 224.333V229.104L97.9013 230.297H93.1871V229.104H89.6514L87.2943 230.297L84.9372 235.068L83.7586 241.032V242.225H84.9372L83.7586 243.418H81.4015L80.2229 245.803V250.574L84.9372 252.96V257.731H88.4728V258.924L89.6514 260.117L90.83 258.924L92.0085 260.117L94.3657 263.695L95.5442 267.273L96.7228 268.466L99.0799 269.659H100.258L101.437 273.237L103.794 278.008H104.973V276.816L106.151 278.008V279.201H107.33L109.687 280.394L112.044 282.78L113.223 285.165H115.58L116.758 283.972V281.587H117.937L120.294 280.394L119.115 279.201V278.008H120.294L121.473 276.816L120.294 275.623L121.473 274.43L123.83 273.237V272.044L125.008 270.852H126.187V268.466L127.365 267.273H128.544V263.695L130.901 264.888L134.437 263.695L133.258 255.356V254.131H129.722L128.544 252.939L129.722 251.746L132.08 250.553V243.396L139.151 238.625L140.329 239.818L141.508 242.204L140.329 243.396V245.782H142.687L147.401 248.167L150.937 250.553L152.115 249.36H154.472L162.712 251.746L172.117 248.172L172.13 248.167L169.772 245.782H166.237L163.88 243.396L160.344 241.011L157.987 239.818V233.854H156.808L154.451 231.468L155.63 230.276V229.083L154.451 227.89H153.273L152.094 223.119L149.737 219.541L148.558 218.348H147.38L146.201 217.155L142.666 215.962H139.13L137.951 214.77L136.773 212.384H134.416L133.237 213.577L130.901 217.176Z" fill="#B01736"/>
<path d="M172.117 248.167L162.699 251.745L154.459 249.359H152.102L150.924 250.552L147.388 248.167L142.674 245.781H140.317V243.395L141.495 242.203L140.317 239.817L139.138 238.624L132.067 243.395V250.552L129.71 251.745L128.531 252.938L129.71 254.13H133.245V255.323L134.424 263.662L130.888 264.855L128.531 263.662V267.241H127.352L126.174 268.433V270.819H124.995L123.817 272.012V273.204L121.46 274.397L120.281 275.59L121.46 276.783L120.281 277.976H119.103V279.168L120.281 280.361L117.924 281.554H116.745V283.939L119.103 287.518L117.924 293.482V295.867H119.103L115.567 300.639L116.745 303.024L119.103 305.41H120.281L121.46 304.217H122.638V305.41H123.817V304.185L124.995 302.992V311.331L127.352 310.138V308.945L129.71 310.138L133.245 313.717H135.602V314.909L134.424 316.102L132.067 314.909L129.71 318.488L130.888 320.873L133.245 319.681L139.138 323.259H140.317L145.031 320.873H148.567L150.924 318.488H153.281L154.459 314.909L155.638 312.524L156.816 311.331V310.138L155.638 306.56L154.459 304.174L155.638 298.21L157.995 295.825L156.816 294.632V292.246H159.174L161.531 289.861L163.888 288.668H168.602V286.282L167.424 283.897L168.602 281.511L170.959 280.318V277.933L172.138 275.547V274.355L173.298 272.006L173.316 271.969L172.138 270.776L170.959 268.391L172.138 267.198V264.812L170.959 262.427V257.656L169.781 256.463V255.27H170.959V251.692H172.138L172.117 248.172L172.117 248.167Z" fill="#B01736"/>
<path d="M83.7773 154V150.422L82.5988 149.229V148.036L80.2416 149.229V150.422L76.706 155.193L74.3488 159.964V162.35L62.5632 174.278L57.849 176.663L54.3133 180.241L56.6704 186.205L54.3133 189.784V194.555L50.7776 198.133L44.8848 199.326L43.7063 202.904V205.29H40.1706L37.8135 202.904L35.4563 205.29L33.0992 208.868H27.2064L24.8493 210.061V211.254L23.6708 214.832L21.3136 217.218V220.796H22.4922L23.6708 221.989L28.385 224.375L31.9207 226.76H33.0992L34.2778 225.567H36.6349V226.76L42.5277 231.531L48.4205 235.11L49.5991 233.917H50.7776L53.1348 235.11L54.3133 236.303V237.495L55.4919 239.881L55.5066 239.871V239.828L59.0423 237.443L62.578 236.25L64.9351 237.443L67.2922 239.828H69.6493L73.185 243.407L76.7207 241.021H82.6135L82.5869 241.074H82.5988L81.4202 243.459H83.7773L84.9559 242.266H83.7773V241.074L84.9559 235.11L87.313 230.339L89.6701 229.146H93.2058V230.339H97.92L100.277 229.146V224.375L101.456 221.989V220.796L101.437 220.777L100.277 219.603V206.493L93.2058 201.722L95.5629 192.18V189.794L93.2058 188.602V185.023L94.3844 182.638L95.5629 177.867L97.92 173.095L95.5629 169.517L94.3844 167.132L90.8487 158.771L83.7773 154Z" fill="#B01736"/>
<path d="M252.2 31.2392V26.4681L253.378 22.8897V20.5042L252.2 19.3114L251.021 22.8897L249.843 28.8537L246.307 32.432L240.414 33.6248L239.236 34.8176H238.057L236.879 37.2033L233.343 40.7816V41.9744L234.521 43.1672V44.36L233.343 46.7455L234.521 51.5167V56.2878L228.629 62.2517L227.45 65.83L225.093 70.6013V75.3725L223.914 77.758L222.736 81.3364H226.272L228.629 83.7219L230.986 82.5292H233.343L240.414 87.3003L243.95 94.457V95.6498L242.771 96.8427L243.95 100.421V103.999H241.593L238.057 106.385L236.879 109.963L241.593 114.734L245.128 117.12H242.771L240.414 115.927L238.057 117.12H236.879V113.542L235.7 111.156V109.963L236.879 107.578V105.192L239.236 102.807H238.057V101.614L239.236 100.421V95.6498L238.057 93.2642V88.4931H225.103L222.746 92.0714L221.568 94.457V98.0355L219.211 106.374L216.854 108.76L213.318 109.953L212.139 113.531L209.782 115.917L206.247 117.109L202.711 119.495L200.354 118.302L199.175 119.495L196.818 123.073H193.282V121.88L192.104 120.688L187.39 119.495L183.854 117.109L181.497 115.917L180.318 113.531L179.14 109.953V106.374L183.854 108.76L189.747 111.145L188.568 112.338H186.211V113.531L189.747 115.917H194.461V113.531L195.639 111.145H196.818L199.175 109.953L200.354 108.76H201.532V106.374L210.961 101.603L212.139 98.0248V95.6392L215.675 93.2535L218.032 89.6752L215.675 84.9041L214.496 77.7474L218.032 71.7834L220.389 65.8195L222.746 58.6627L225.103 56.2771L228.639 49.1204L227.461 43.1565V37.1926L232.175 32.4213L239.246 20.5042V16.9258L236.889 13.3475L230.996 10.9619L226.282 8.57634H225.103L226.282 7.38355H225.103V6.19064L219.211 13.3475L213.318 21.6863L203.9 28.843L196.829 32.4213H198.007L196.829 34.807H195.65L194.471 37.1926H196.829L198.007 38.3854L195.65 41.9637L193.293 46.7349V49.1204L192.114 51.506L190.936 50.3132H189.757L187.4 52.6988L186.222 56.2771V57.4699L187.4 56.2771H188.579L190.936 61.0483H192.114V63.4338L190.936 64.6267V70.5907L193.293 72.9762V74.169L186.222 82.5078H183.864L185.043 81.315V80.1223L182.686 77.7367L181.507 69.3979L180.139 69.5363L179.939 68.7376L179.413 67.9388L180.76 67.8962L180.276 66.5969L179.15 65.83L179.813 63.8492L176.804 59.8661L172.089 56.2878L167.375 61.0589L169.732 64.6373L170.911 65.83V68.2158L167.375 72.9869H166.197L165.018 77.758L167.375 81.3364L168.554 84.9147L163.839 87.3003L157.947 90.8786L156.768 92.0714L155.589 94.457H150.875L146.161 95.6498H142.625L140.268 98.0355V99.2282L136.733 100.421L133.197 103.999L130.84 102.807H127.455C127.915 104.204 128.022 104.988 128.483 106.385V108.771L129.661 111.156V112.349L127.304 115.927L126.126 119.506H123.768L122.59 121.891L123.768 124.277L127.304 125.469L126.126 127.855L127.304 130.241H130.84L132.018 131.434L134.375 130.241H136.733V131.434L137.911 132.626L139.09 131.434H140.268L143.804 132.626L147.34 135.012L148.518 136.205L150.875 137.397L149.697 138.59L147.34 139.783L149.697 143.361L153.232 146.94L157.947 144.554L161.482 145.747H162.661L163.839 144.554H166.197V145.747L167.375 146.94H168.554L170.911 149.325L169.732 150.518L168.554 152.904V156.482L169.732 158.868L172.089 161.253V169.592L177.982 170.785L183.875 169.592L186.232 173.17L187.411 176.749L189.768 179.134L192.125 180.327L198.018 181.52L202.732 185.098L208.625 188.677L209.803 193.448L212.16 195.833H220.4L225.114 198.219L232.185 195.833L236.9 193.448H238.078V197.026L241.614 200.605H246.328L251.042 207.761H255.757L258.114 210.147L260.471 214.918L266.364 210.147L269.899 205.376L271.078 202.99V201.797L272.256 200.605L273.435 198.219L271.078 197.026L269.899 195.833V193.448L271.078 192.255H273.435L278.149 185.098L279.328 177.942L278.149 174.363L275.792 175.556L273.435 174.363L272.256 171.978H269.899L268.721 168.399H269.899L271.078 166.014V157.675L267.542 156.482L266.364 152.904V144.565L267.542 139.794L266.364 133.83L265.185 130.251L264.006 129.059V127.866L265.974 126.417L267.058 124.522L265.185 123.105V118.334L269.899 115.949L272.256 109.985L274.614 95.6817L272.256 93.2962V92.1034L271.078 90.9106L268.721 93.2962H265.185L262.828 90.9106L259.292 88.525L258.114 84.9467L256.935 82.5611V78.9828L259.292 77.79V76.5972H260.471L265.185 73.0187L267.542 70.6332L269.899 71.826H272.256L273.435 65.862V59.8981L268.721 55.127V50.3559H272.256L274.614 47.9703V44.3919L269.899 39.6207L267.542 34.8495H264.006L260.471 37.2351H262.828L264.006 39.6207V42.0062L259.292 40.8135L258.114 37.2351L253.399 38.4279L252.221 43.199L253.399 47.9703L255.757 51.5486H258.114L260.471 53.9342L259.292 59.8981L256.935 55.127L249.864 51.5486L243.971 46.7775L245.15 45.5847L247.507 40.8135L246.328 38.4279L249.864 34.8495L252.2 31.2392Z" fill="#B01736"/>
<path d="M62.5632 236.303L59.0275 237.495L55.5066 239.871V245.792L54.328 250.563H51.9709L50.7924 251.756H49.6138V252.949L48.4352 255.334L44.8996 258.913L49.6138 262.491L53.1495 264.877V267.262L50.7924 268.455L51.9709 270.841V273.226L63.7565 275.612L66.1136 276.805L67.2922 277.997L69.6493 275.612H72.0064L75.5421 276.805L76.7207 277.997L95.5566 280.383L97.9137 277.997H99.0923L101.449 279.19L102.628 277.997H103.807L101.449 273.226L100.271 269.648H99.0923L96.7352 268.455L95.5566 267.262L94.3781 263.684L92.0209 260.105L90.8423 258.913L89.6638 260.105L88.4852 258.913V257.72H84.9495V252.949L80.2353 250.563V245.792L81.4139 243.407L82.5869 241.074H76.706L73.1703 243.459L69.6346 239.881H67.2775L64.9203 237.495L62.5632 236.303Z" fill="#B01736"/>
<path d="M175.652 274.388L178.009 275.581L192.12 280.416L191.015 281.651L199.212 286.305L205.105 295.837L213.344 297.03L214.523 301.801H221.594L222.773 302.994V301.801L223.951 300.608H227.487L228.666 302.994L227.487 304.186V308.979L225.13 311.364L226.309 312.557L227.024 313.271L227.487 313.739L229.844 312.547L231.023 308.968L232.201 310.161L238.073 310.151H240.43L242.787 308.958L243.966 310.151H245.144L248.68 306.572H249.859L251.037 307.765L252.216 306.572H260.455L261.644 305.39L266.359 307.776L269.894 305.39L274.584 305.518L275.763 301.939L278.12 297.168H280.382L281.561 295.975V293.59H282.739V292.397L280.382 286.433L275.668 281.662V278.084L276.847 274.505L280.382 272.12L282.739 270.927L280.382 267.349L276.847 266.156L275.668 263.77V260.192L273.311 257.806H272.132L270.954 256.613V255.421L268.597 254.228L265.061 253.035L260.347 251.842L255.485 252.961L250.929 250.66V235.165L260.347 232.779L268.586 228.008L266.229 225.622L261.515 223.237L260.471 214.918L258.114 210.147L255.757 207.761H251.042L246.328 200.605H241.614L238.078 197.026V193.448H236.9L232.185 195.833L225.114 198.219L220.4 195.833H212.16L209.803 193.448L208.625 188.677L202.732 185.098L198.018 181.52L192.125 180.327L189.768 179.134L187.411 176.749L186.232 173.17L183.875 169.592L177.982 170.785L172.089 169.592V161.253L169.732 158.868L168.554 156.482V152.904L169.732 150.518L170.911 149.325L168.554 146.94H167.375L166.197 145.747V144.554H163.839L162.661 145.747H161.482L157.947 144.554L153.232 146.94L149.697 143.361L147.34 139.783L149.697 138.59L150.875 137.397L148.518 136.205L147.34 135.012L143.804 132.626L140.268 131.434H139.09L137.911 132.626L136.733 131.434V130.241H134.375L132.018 131.434L130.84 130.241H127.304L126.126 127.855L127.304 125.469L123.768 124.277L122.59 121.891L123.768 119.506H126.126L127.304 115.927L129.661 112.349V111.156L128.483 108.771V106.385C128.022 104.988 127.915 104.204 127.455 102.807L125.055 103.98L121.519 105.173V106.365L114.448 109.944L113.27 107.558C113.27 107.558 113.479 106.781 113.27 106.365C112.855 105.541 110.912 106.365 110.912 106.365L108.555 107.558H107.377L106.198 108.751L103.841 109.944L102.662 111.137L101.484 118.293L92.0555 127.836L87.3412 137.378V138.571L88.5198 139.763L87.3412 142.149H84.9841L83.8055 145.727L82.5988 148.036V149.229L83.7773 150.422V154L90.8487 158.771L94.3844 167.132L95.5629 169.517L97.92 173.095L95.5629 177.867L94.3844 182.638L93.2058 185.023V188.602L95.5629 189.794V192.18L93.2058 201.722L100.277 206.493V219.603L101.437 220.777V220.755L104.973 221.948H108.508L109.687 219.562L112.044 218.369H113.223L114.401 219.562H120.294L122.651 220.755H123.83L126.187 218.369L130.901 217.176L133.237 213.577L134.416 212.384H136.773L137.951 214.77L139.13 215.962H142.666L146.201 217.155L147.38 218.348H148.558L149.737 219.541L152.094 223.119L153.273 227.89H154.451L155.63 229.083V230.276L154.451 231.468L156.808 233.854H157.987V239.818L160.344 241.011L163.88 243.396L166.237 245.782H169.772L172.13 248.167L172.117 248.172L172.138 251.692H170.959V255.27H169.781V256.463L170.959 257.656V262.427L172.138 264.812V267.198L170.959 268.391L172.138 270.776L173.316 271.969L173.298 272.006L175.652 274.388Z" fill="#B01736"/>
<path d="M236.889 0.248047H234.532L228.639 2.63361V6.21196L233.353 7.40474L236.889 6.21196V0.248047Z" fill="#B01736"/>
<path d="M253.378 15.7437L248.664 14.5509L249.843 18.1293H251.021L252.2 15.7437H253.378Z" fill="#B01736"/>
<path d="M265.164 33.6141L266.343 32.4213V30.0358L265.164 28.843L259.271 31.2286L263.985 33.6141H265.164Z" fill="#B01736"/>
</g>
</svg>
