<svg width="349" height="377" viewBox="0 0 349 377" fill="none" xmlns="http://www.w3.org/2000/svg">
<g opacity="0.4">
<path d="M32.1755 168.309C34.052 160.362 29.131 152.399 21.1842 150.522C13.2374 148.646 5.27409 153.567 3.39763 161.513C1.52117 169.46 6.44215 177.424 14.3889 179.3C22.3357 181.176 30.299 176.255 32.1755 168.309Z" stroke="#A30C33" stroke-width="2.61288" stroke-miterlimit="10"/>
<path d="M276.904 163.367L30.9727 163.367V166.295L276.904 166.295V163.367Z" fill="#A30C33"/>
<path d="M19.2676 151.659H16.3398V134.092C16.3398 133.653 16.4862 133.36 16.779 133.068L106.368 43.7712C106.661 43.4784 106.954 43.332 107.393 43.332H189.077V46.2598L107.979 46.2598L19.2676 134.678V151.659Z" fill="#A30C33"/>
<path d="M231.53 299.511H121.739C121.3 299.511 121.007 299.364 120.714 299.071L16.779 195.136C16.4862 194.843 16.3398 194.551 16.3398 194.111V179.473H19.2676V193.526L122.325 296.583H231.53V299.511Z" fill="#A30C33"/>
<path d="M158.331 205.822H99.483C99.0438 205.822 98.7511 205.676 98.4583 205.383L58.9336 166.151L60.983 164.102L100.069 202.894H158.331V205.822Z" fill="#A30C33"/>
<path d="M117.639 166.003L115.59 163.954L154.968 124.283C155.261 123.99 155.554 123.844 155.993 123.844H215.426V126.772H156.578L117.639 166.003Z" fill="#A30C33"/>
<path d="M341.311 91.639L108.847 91.639C108.408 91.639 108.115 91.4927 107.823 91.1999L84.5469 67.6315L86.5963 65.582L109.433 88.7113L341.311 88.7113V91.639Z" fill="#A30C33"/>
<path d="M134.03 45.8228L131.98 43.7734L170.041 5.71261C170.334 5.41983 170.627 5.27344 171.066 5.27344L293.007 5.27344V8.20119L171.652 8.20119L134.03 45.8228Z" fill="#A30C33"/>
<path d="M157.746 371.242L98.7516 312.248C98.4589 311.955 98.3125 311.662 98.3125 311.223V276.09H101.24V310.637L159.795 369.192L157.746 371.242Z" fill="#A30C33"/>
<path d="M144.424 298.629L142.375 296.579L181.168 257.494C181.461 257.201 181.753 257.055 182.192 257.055H329.605V259.982H182.924L144.424 298.629Z" fill="#A30C33"/>
<path d="M281.298 340.5H215.716C215.277 340.5 214.984 340.354 214.692 340.061L173.41 298.78L175.46 296.73L216.302 337.573H281.298V340.5Z" fill="#A30C33"/>
<path d="M293.011 13.4677C296.73 13.4677 299.745 10.4528 299.745 6.73383C299.745 3.01484 296.73 0 293.011 0C289.292 0 286.277 3.01484 286.277 6.73383C286.277 10.4528 289.292 13.4677 293.011 13.4677Z" fill="#A30C33"/>
<path d="M202.251 60.3115C193.761 60.3115 186.734 53.4313 186.734 44.7944C186.734 36.1576 193.615 29.2773 202.251 29.2773C210.888 29.2773 217.769 36.1576 217.769 44.7944C217.769 53.4313 210.742 60.3115 202.251 60.3115ZM202.251 32.2051C195.371 32.2051 189.662 37.9142 189.662 44.7944C189.662 51.6747 195.371 57.3838 202.251 57.3838C209.132 57.3838 214.841 51.6747 214.841 44.7944C214.841 37.9142 209.132 32.2051 202.251 32.2051Z" fill="#A30C33"/>
<path d="M202.246 51.5263C205.965 51.5263 208.979 48.5114 208.979 44.7924C208.979 41.0734 205.965 38.0586 202.246 38.0586C198.527 38.0586 195.512 41.0734 195.512 44.7924C195.512 48.5114 198.527 51.5263 202.246 51.5263Z" fill="#A30C33"/>
<path d="M348.05 90.4682C348.05 94.1279 344.976 97.202 341.316 97.202C337.656 97.202 334.582 94.1279 334.582 90.4682C334.582 86.8085 337.656 83.7344 341.316 83.7344C344.976 83.7344 348.05 86.6621 348.05 90.4682Z" fill="#A30C33"/>
<path d="M215.421 132.042C219.14 132.042 222.155 129.027 222.155 125.308C222.155 121.589 219.14 118.574 215.421 118.574C211.702 118.574 208.688 121.589 208.688 125.308C208.688 129.027 211.702 132.042 215.421 132.042Z" fill="#A30C33"/>
<path d="M290.08 180.351C281.589 180.351 274.562 173.47 274.562 164.834C274.562 156.197 281.443 149.316 290.08 149.316C298.716 149.316 305.597 156.197 305.597 164.834C305.597 173.47 298.57 180.351 290.08 180.351ZM290.08 152.244C283.199 152.244 277.49 157.953 277.49 164.834C277.49 171.714 283.199 177.423 290.08 177.423C296.96 177.423 302.669 171.714 302.669 164.834C302.669 157.953 296.96 152.244 290.08 152.244Z" fill="#A30C33"/>
<path d="M290.074 171.565C293.793 171.565 296.808 168.55 296.808 164.832C296.808 161.113 293.793 158.098 290.074 158.098C286.355 158.098 283.34 161.113 283.34 164.832C283.34 168.55 286.355 171.565 290.074 171.565Z" fill="#A30C33"/>
<path d="M158.324 211.093C162.043 211.093 165.058 208.078 165.058 204.359C165.058 200.64 162.043 197.625 158.324 197.625C154.605 197.625 151.59 200.64 151.59 204.359C151.59 208.078 154.605 211.093 158.324 211.093Z" fill="#A30C33"/>
<path d="M329.609 265.257C333.328 265.257 336.343 262.242 336.343 258.523C336.343 254.804 333.328 251.789 329.609 251.789C325.89 251.789 322.875 254.804 322.875 258.523C322.875 262.242 325.89 265.257 329.609 265.257Z" fill="#A30C33"/>
<path d="M244.701 313.272C236.21 313.272 229.184 306.392 229.184 297.755C229.184 289.118 236.064 282.238 244.701 282.238C253.338 282.238 260.218 289.118 260.218 297.755C260.218 306.392 253.191 313.272 244.701 313.272ZM244.701 285.166C237.82 285.166 232.111 290.875 232.111 297.755C232.111 304.636 237.82 310.345 244.701 310.345C251.581 310.345 257.29 304.636 257.29 297.755C257.29 290.875 251.581 285.166 244.701 285.166Z" fill="#A30C33"/>
<path d="M251.433 297.753C251.433 301.413 248.358 304.487 244.699 304.487C241.039 304.487 237.965 301.413 237.965 297.753C237.965 294.094 241.039 291.02 244.699 291.02C248.358 291.02 251.433 294.094 251.433 297.753Z" fill="#A30C33"/>
<path d="M281.296 345.768C285.015 345.768 288.03 342.754 288.03 339.035C288.03 335.316 285.015 332.301 281.296 332.301C277.577 332.301 274.562 335.316 274.562 339.035C274.562 342.754 277.577 345.768 281.296 345.768Z" fill="#A30C33"/>
<path d="M165.511 370.214C165.511 373.874 162.436 376.948 158.777 376.948C155.117 376.948 152.043 373.874 152.043 370.214C152.043 366.554 155.117 363.48 158.777 363.48C162.583 363.627 165.511 366.554 165.511 370.214Z" fill="#A30C33"/>
<g opacity="0.4">
<path d="M276.914 163.367L28.0547 163.367V166.295L276.914 166.295V163.367Z" fill="black"/>
<path d="M19.2676 151.659H16.3398V134.092C16.3398 133.653 16.4862 133.36 16.779 133.068L106.368 43.7712C106.661 43.4784 106.954 43.332 107.393 43.332H189.077V46.2598L107.979 46.2598L19.2676 134.678V151.659Z" fill="black"/>
<path d="M231.53 299.511H121.739C121.3 299.511 121.007 299.364 120.714 299.071L16.779 195.136C16.4862 194.843 16.3398 194.551 16.3398 194.111V179.473H19.2676V193.526L122.325 296.583H231.53V299.511Z" fill="black"/>
<path d="M158.335 205.822H99.4869C99.0477 205.822 98.755 205.676 98.4622 205.383L58.9375 166.151L60.9869 164.102L100.072 202.894H158.335V205.822Z" fill="black"/>
<path d="M117.639 166.003L115.59 163.954L154.968 124.283C155.261 123.99 155.554 123.844 155.993 123.844H215.426V126.772H156.578L117.639 166.003Z" fill="black"/>
<path d="M341.319 91.639L108.855 91.639C108.416 91.639 108.123 91.4927 107.83 91.1999L84.5547 67.6315L86.6041 65.582L109.441 88.7113L341.319 88.7113V91.639Z" fill="black"/>
<path d="M134.038 45.8228L131.988 43.7734L170.049 5.71261C170.342 5.41983 170.635 5.27344 171.074 5.27344L293.015 5.27344V8.20119L171.659 8.20119L134.038 45.8228Z" fill="black"/>
<path d="M157.75 371.242L98.7556 312.248C98.4628 311.955 98.3164 311.662 98.3164 311.223V276.09H101.244V310.637L159.799 369.192L157.75 371.242Z" fill="black"/>
<path d="M144.424 298.629L142.375 296.579L181.168 257.494C181.461 257.201 181.753 257.055 182.192 257.055H329.605V259.982H182.924L144.424 298.629Z" fill="black"/>
<path d="M281.298 340.5H215.716C215.277 340.5 214.984 340.354 214.692 340.061L173.41 298.78L175.46 296.73L216.302 337.573H281.298V340.5Z" fill="black"/>
<path d="M293.011 13.4677C296.73 13.4677 299.745 10.4528 299.745 6.73383C299.745 3.01484 296.73 0 293.011 0C289.292 0 286.277 3.01484 286.277 6.73383C286.277 10.4528 289.292 13.4677 293.011 13.4677Z" fill="black"/>
<path d="M202.248 60.3115C193.757 60.3115 186.73 53.4313 186.73 44.7944C186.73 36.1576 193.611 29.2773 202.248 29.2773C210.884 29.2773 217.765 36.1576 217.765 44.7944C217.765 53.4313 210.738 60.3115 202.248 60.3115ZM202.248 32.2051C195.367 32.2051 189.658 37.9142 189.658 44.7944C189.658 51.6747 195.367 57.3838 202.248 57.3838C209.128 57.3838 214.837 51.6747 214.837 44.7944C214.837 37.9142 209.128 32.2051 202.248 32.2051Z" fill="black"/>
<path d="M348.054 90.4682C348.054 94.1279 344.979 97.202 341.32 97.202C337.66 97.202 334.586 94.1279 334.586 90.4682C334.586 86.8085 337.66 83.7344 341.32 83.7344C344.979 83.7344 348.054 86.6621 348.054 90.4682Z" fill="black"/>
<path d="M215.421 132.042C219.14 132.042 222.155 129.027 222.155 125.308C222.155 121.589 219.14 118.574 215.421 118.574C211.702 118.574 208.688 121.589 208.688 125.308C208.688 129.027 211.702 132.042 215.421 132.042Z" fill="black"/>
<path d="M290.084 180.351C281.593 180.351 274.566 173.47 274.566 164.834C274.566 156.197 281.447 149.316 290.084 149.316C298.72 149.316 305.601 156.197 305.601 164.834C305.601 173.47 298.574 180.351 290.084 180.351ZM290.084 152.244C283.203 152.244 277.494 157.953 277.494 164.834C277.494 171.714 283.203 177.423 290.084 177.423C296.964 177.423 302.673 171.714 302.673 164.834C302.673 157.953 296.964 152.244 290.084 152.244Z" fill="black"/>
<path d="M158.328 211.093C162.047 211.093 165.061 208.078 165.061 204.359C165.061 200.64 162.047 197.625 158.328 197.625C154.609 197.625 151.594 200.64 151.594 204.359C151.594 208.078 154.609 211.093 158.328 211.093Z" fill="black"/>
<path d="M329.609 265.257C333.328 265.257 336.343 262.242 336.343 258.523C336.343 254.804 333.328 251.789 329.609 251.789C325.89 251.789 322.875 254.804 322.875 258.523C322.875 262.242 325.89 265.257 329.609 265.257Z" fill="black"/>
<path d="M244.705 313.272C236.214 313.272 229.188 306.392 229.188 297.755C229.188 289.118 236.068 282.238 244.705 282.238C253.342 282.238 260.222 289.118 260.222 297.755C260.222 306.392 253.195 313.272 244.705 313.272ZM244.705 285.166C237.825 285.166 232.115 290.875 232.115 297.755C232.115 304.636 237.825 310.345 244.705 310.345C251.585 310.345 257.294 304.636 257.294 297.755C257.294 290.875 251.585 285.166 244.705 285.166Z" fill="black"/>
<path d="M281.3 345.768C285.019 345.768 288.034 342.754 288.034 339.035C288.034 335.316 285.019 332.301 281.3 332.301C277.581 332.301 274.566 335.316 274.566 339.035C274.566 342.754 277.581 345.768 281.3 345.768Z" fill="black"/>
<path d="M165.511 370.214C165.511 373.874 162.436 376.948 158.777 376.948C155.117 376.948 152.043 373.874 152.043 370.214C152.043 366.554 155.117 363.48 158.777 363.48C162.583 363.627 165.511 366.554 165.511 370.214Z" fill="black"/>
<path d="M17.8013 181.962C8.43248 181.962 0.820313 174.35 0.820313 164.981C0.820313 155.612 8.43248 148 17.8013 148C27.1701 148 34.7823 155.612 34.7823 164.981C34.7823 174.203 27.1701 181.962 17.8013 181.962ZM17.8013 152.245C10.7747 152.245 5.21194 157.954 5.21194 164.835C5.21194 171.861 10.9211 177.424 17.8013 177.424C24.6815 177.424 30.3906 171.715 30.3906 164.835C30.3906 157.954 24.8279 152.245 17.8013 152.245Z" fill="black"/>
</g>
</g>
</svg>
