<svg width="349" height="377" viewBox="0 0 349 377" fill="none" xmlns="http://www.w3.org/2000/svg">
<g opacity="0.4">
<path d="M330.271 203.034C335.248 203.034 339.347 207.133 339.347 212.11C339.347 217.088 335.248 221.187 330.271 221.187C325.293 221.187 321.195 217.088 321.195 212.11C321.195 207.133 325.293 203.034 330.271 203.034Z" fill="#A30C33"/>
<path opacity="0.5" d="M330.271 203.034C335.248 203.034 339.347 207.133 339.347 212.11C339.347 217.088 335.248 221.187 330.271 221.187C325.293 221.187 321.195 217.088 321.195 212.11C321.195 207.133 325.293 203.034 330.271 203.034Z" fill="black"/>
<path d="M315.878 208.639C314.002 216.586 318.923 224.55 326.87 226.426C334.816 228.302 342.78 223.381 344.656 215.435C346.533 207.488 341.612 199.525 333.665 197.648C325.718 195.772 317.755 200.693 315.878 208.639Z" stroke="#A30C33" stroke-width="2.61288" stroke-miterlimit="10"/>
<path d="M71.1497 213.581L317.081 213.581L317.081 210.653L71.1497 210.653L71.1497 213.581Z" fill="#A30C33"/>
<path d="M328.786 225.289L331.714 225.289L331.714 242.856C331.714 243.295 331.567 243.588 331.275 243.88L241.685 333.177C241.393 333.47 241.1 333.616 240.661 333.616L158.976 333.616L158.976 330.688L240.075 330.688L328.786 242.27L328.786 225.289Z" fill="#A30C33"/>
<path d="M116.524 77.4376L226.315 77.4375C226.754 77.4375 227.047 77.5839 227.339 77.8767L331.275 181.812C331.567 182.105 331.714 182.398 331.714 182.837L331.714 197.475L328.786 197.475L328.786 183.422L225.729 80.3653L116.524 80.3653L116.524 77.4376Z" fill="#A30C33"/>
<path d="M189.723 171.126L248.571 171.126C249.01 171.126 249.303 171.272 249.595 171.565L289.12 210.797L287.071 212.847L247.985 174.054L189.723 174.054L189.723 171.126Z" fill="#A30C33"/>
<path d="M230.414 210.945L232.464 212.994L193.086 252.665C192.793 252.958 192.5 253.104 192.061 253.104L132.627 253.104L132.627 250.177L191.475 250.177L230.414 210.945Z" fill="#A30C33"/>
<path d="M6.74282 285.309L239.206 285.309C239.646 285.309 239.938 285.455 240.231 285.748L263.507 309.317L261.457 311.366L238.621 288.237L6.74282 288.237L6.74282 285.309Z" fill="#A30C33"/>
<path d="M214.024 331.129L216.073 333.179L178.012 371.239C177.72 371.532 177.427 371.679 176.988 371.679L55.0467 371.679L55.0467 368.751L176.402 368.751L214.024 331.129Z" fill="#A30C33"/>
<path d="M190.308 5.70627L249.302 64.7005C249.595 64.9933 249.741 65.2861 249.741 65.7252L249.741 100.858L246.813 100.858L246.813 66.3108L188.258 7.75569L190.308 5.70627Z" fill="#A30C33"/>
<path d="M203.629 78.3193L205.679 80.3687L166.886 119.454C166.593 119.747 166.3 119.893 165.861 119.893L18.4488 119.893L18.4488 116.966L165.129 116.966L203.629 78.3193Z" fill="#A30C33"/>
<path d="M66.7558 36.4477L132.337 36.4477C132.777 36.4477 133.069 36.5941 133.362 36.8869L174.644 78.1682L172.594 80.2177L131.752 39.3755L66.7558 39.3755L66.7558 36.4477Z" fill="#A30C33"/>
<path d="M55.0425 363.48C51.3235 363.48 48.3087 366.495 48.3087 370.214C48.3087 373.933 51.3235 376.948 55.0425 376.948C58.7615 376.948 61.7764 373.933 61.7764 370.214C61.7764 366.495 58.7615 363.48 55.0425 363.48Z" fill="#A30C33"/>
<path d="M145.802 316.637C154.293 316.637 161.319 323.517 161.319 332.154C161.319 340.791 154.439 347.671 145.802 347.671C137.165 347.671 130.285 340.791 130.285 332.154C130.285 323.517 137.312 316.637 145.802 316.637ZM145.802 344.743C152.682 344.743 158.392 339.034 158.392 332.154C158.392 325.273 152.682 319.564 145.802 319.564C138.922 319.564 133.213 325.273 133.213 332.154C133.213 339.034 138.922 344.743 145.802 344.743Z" fill="#A30C33"/>
<path d="M145.808 325.422C142.089 325.422 139.074 328.437 139.074 332.156C139.074 335.875 142.089 338.89 145.808 338.89C149.527 338.89 152.542 335.875 152.542 332.156C152.542 328.437 149.527 325.422 145.808 325.422Z" fill="#A30C33"/>
<path d="M0.00399098 286.48C0.00399066 282.82 3.07814 279.746 6.73783 279.746C10.3975 279.746 13.4717 282.82 13.4717 286.48C13.4717 290.14 10.3975 293.214 6.73784 293.214C3.07814 293.214 0.00399131 290.286 0.00399098 286.48Z" fill="#A30C33"/>
<path d="M132.632 244.906C128.913 244.906 125.899 247.921 125.899 251.64C125.899 255.359 128.913 258.374 132.632 258.374C136.351 258.374 139.366 255.359 139.366 251.64C139.366 247.921 136.351 244.906 132.632 244.906Z" fill="#A30C33"/>
<path d="M57.9741 196.598C66.4646 196.597 73.4912 203.478 73.4912 212.115C73.4912 220.751 66.611 227.632 57.9741 227.632C49.3372 227.632 42.457 220.751 42.457 212.115C42.457 203.478 49.4836 196.598 57.9741 196.598ZM57.9741 224.704C64.8543 224.704 70.5635 218.995 70.5635 212.115C70.5635 205.234 64.8543 199.525 57.9741 199.525C51.0939 199.525 45.3847 205.234 45.3847 212.115C45.3848 218.995 51.0939 224.704 57.9741 224.704Z" fill="#A30C33"/>
<path d="M57.98 205.383C54.261 205.383 51.2462 208.398 51.2462 212.117C51.2462 215.836 54.261 218.85 57.98 218.85C61.699 218.85 64.7139 215.836 64.7139 212.117C64.7139 208.398 61.699 205.383 57.98 205.383Z" fill="#A30C33"/>
<path d="M189.73 165.855C186.011 165.855 182.996 168.87 182.996 172.589C182.996 176.308 186.011 179.323 189.73 179.323C193.449 179.323 196.464 176.308 196.464 172.589C196.464 168.87 193.449 165.855 189.73 165.855Z" fill="#A30C33"/>
<path d="M18.4449 111.691C14.7259 111.691 11.711 114.706 11.711 118.425C11.711 122.144 14.7259 125.159 18.4449 125.159C22.1639 125.159 25.1787 122.144 25.1787 118.425C25.1787 114.706 22.1639 111.691 18.4449 111.691Z" fill="#A30C33"/>
<path d="M103.353 63.6757C111.843 63.6757 118.87 70.5559 118.87 79.1928C118.87 87.8297 111.99 94.7098 103.353 94.7098C94.7161 94.7098 87.8359 87.8297 87.8359 79.1928C87.8359 70.5559 94.8625 63.6757 103.353 63.6757ZM103.353 91.7821C110.233 91.7821 115.942 86.073 115.942 79.1928C115.942 72.3126 110.233 66.6034 103.353 66.6034C96.4728 66.6034 90.7637 72.3126 90.7637 79.1928C90.7637 86.073 96.4728 91.7821 103.353 91.7821Z" fill="#A30C33"/>
<path d="M96.6212 79.1948C96.6212 75.5351 99.6953 72.4609 103.355 72.4609C107.015 72.4609 110.089 75.5351 110.089 79.1948C110.089 82.8545 107.015 85.9286 103.355 85.9286C99.6953 85.9286 96.6212 82.8545 96.6212 79.1948Z" fill="#A30C33"/>
<path d="M66.7574 31.1797C63.0384 31.1797 60.0235 34.1945 60.0235 37.9135C60.0235 41.6325 63.0384 44.6473 66.7574 44.6473C70.4764 44.6473 73.4912 41.6325 73.4912 37.9135C73.4912 34.1945 70.4764 31.1797 66.7574 31.1797Z" fill="#A30C33"/>
<path d="M182.543 6.73385C182.543 3.07416 185.617 9.92699e-06 189.277 9.60705e-06C192.937 9.28711e-06 196.011 3.07416 196.011 6.73385C196.011 10.3935 192.937 13.4677 189.277 13.4677C185.471 13.3213 182.543 10.3935 182.543 6.73385Z" fill="#A30C33"/>
<g opacity="0.4">
<path d="M182.543 213.453L319.999 213.453L319.999 210.782L182.543 210.782L182.543 213.453Z" fill="black"/>
<path d="M328.786 225.289L331.714 225.289L331.714 242.856C331.714 243.295 331.567 243.588 331.275 243.88L241.685 333.177C241.393 333.47 241.1 333.616 240.661 333.616L158.976 333.616L158.976 330.688L240.075 330.688L328.786 242.27L328.786 225.289Z" fill="black"/>
<path d="M116.524 77.4376L226.315 77.4375C226.754 77.4375 227.047 77.5839 227.339 77.8767L331.275 181.812C331.567 182.105 331.714 182.398 331.714 182.837L331.714 197.475L328.786 197.475L328.786 183.422L225.729 80.3653L116.524 80.3653L116.524 77.4376Z" fill="black"/>
<path d="M189.719 171.126L248.567 171.126C249.006 171.126 249.299 171.272 249.592 171.565L289.116 210.797L287.067 212.847L247.981 174.054L189.719 174.054L189.719 171.126Z" fill="black"/>
<path d="M230.414 210.945L232.464 212.994L193.086 252.665C192.793 252.958 192.5 253.104 192.061 253.104L152.627 253.104L152.627 250.177L191.475 250.177L230.414 210.945Z" fill="black"/>
<path d="M6.73501 285.309L239.199 285.309C239.638 285.309 239.931 285.455 240.223 285.748L263.499 309.317L261.45 311.366L238.613 288.237L6.73501 288.237L6.73501 285.309Z" fill="black"/>
<path d="M214.016 331.129L216.065 333.179L178.005 371.239C177.712 371.532 177.419 371.679 176.98 371.679L55.0389 371.679L55.0389 368.751L176.394 368.751L214.016 331.129Z" fill="black"/>
<path d="M190.304 5.70627L249.298 64.7005C249.591 64.9933 249.737 65.2861 249.737 65.7252L249.737 100.858L246.81 100.858L246.81 66.3108L188.254 7.75569L190.304 5.70627Z" fill="black"/>
<path d="M203.629 78.3193L205.679 80.3687L166.886 119.454C166.593 119.747 166.3 119.893 165.861 119.893L18.4488 119.893L18.4488 116.966L165.129 116.966L203.629 78.3193Z" fill="black"/>
<path d="M66.7558 36.4477L132.337 36.4477C132.777 36.4477 133.069 36.5941 133.362 36.8869L174.644 78.1682L172.594 80.2177L131.752 39.3755L66.7558 39.3755L66.7558 36.4477Z" fill="black"/>
<path d="M55.0425 363.48C51.3235 363.48 48.3087 366.495 48.3087 370.214C48.3087 373.933 51.3235 376.948 55.0425 376.948C58.7615 376.948 61.7764 373.933 61.7764 370.214C61.7764 366.495 58.7615 363.48 55.0425 363.48Z" fill="black"/>
<path d="M145.806 316.637C154.297 316.637 161.323 323.517 161.323 332.154C161.323 340.791 154.443 347.671 145.806 347.671C137.169 347.671 130.289 340.791 130.289 332.154C130.289 323.517 137.316 316.637 145.806 316.637ZM145.806 344.743C152.686 344.743 158.395 339.034 158.395 332.154C158.395 325.273 152.686 319.564 145.806 319.564C138.926 319.564 133.217 325.273 133.217 332.154C133.217 339.034 138.926 344.743 145.806 344.743Z" fill="black"/>
<path d="M8.47293e-05 286.48C8.44093e-05 282.82 3.07424 279.746 6.73393 279.746C10.3936 279.746 13.4678 282.82 13.4678 286.48C13.4678 290.14 10.3936 293.214 6.73393 293.214C3.07424 293.214 8.5062e-05 290.286 8.47293e-05 286.48Z" fill="black"/>
<path d="M152.632 244.906C148.913 244.906 145.899 247.921 145.899 251.64C145.899 255.359 148.913 258.374 152.632 258.374C156.351 258.374 159.366 255.359 159.366 251.64C159.366 247.921 156.351 244.906 152.632 244.906Z" fill="black"/>
<path d="M189.726 165.855C186.007 165.855 182.992 168.87 182.992 172.589C182.992 176.308 186.007 179.323 189.726 179.323C193.445 179.323 196.46 176.308 196.46 172.589C196.46 168.87 193.445 165.855 189.726 165.855Z" fill="black"/>
<path d="M179.347 206.113C175.628 206.113 172.613 209.128 172.613 212.847C172.613 216.566 175.628 219.58 179.347 219.58C183.066 219.58 186.081 216.566 186.081 212.847C186.081 209.128 183.066 206.113 179.347 206.113Z" fill="black"/>
<path d="M18.4449 111.691C14.7259 111.691 11.711 114.706 11.711 118.425C11.711 122.144 14.7259 125.159 18.4449 125.159C22.1639 125.159 25.1787 122.144 25.1787 118.425C25.1787 114.706 22.1639 111.691 18.4449 111.691Z" fill="black"/>
<path d="M103.349 63.6757C111.839 63.6757 118.866 70.5559 118.866 79.1928C118.866 87.8297 111.986 94.7098 103.349 94.7098C94.7121 94.7098 87.8319 87.8297 87.8319 79.1928C87.8319 70.5559 94.8585 63.6757 103.349 63.6757ZM103.349 91.7821C110.229 91.7821 115.938 86.073 115.938 79.1928C115.938 72.3126 110.229 66.6034 103.349 66.6034C96.4688 66.6034 90.7596 72.3126 90.7596 79.1928C90.7596 86.073 96.4688 91.7821 103.349 91.7821Z" fill="black"/>
<path d="M66.7535 31.1797C63.0345 31.1797 60.0196 34.1945 60.0196 37.9135C60.0196 41.6325 63.0345 44.6473 66.7535 44.6473C70.4725 44.6473 73.4873 41.6325 73.4873 37.9135C73.4873 34.1945 70.4725 31.1797 66.7535 31.1797Z" fill="black"/>
<path d="M182.543 6.73385C182.543 3.07416 185.617 9.92699e-06 189.277 9.60705e-06C192.937 9.28711e-06 196.011 3.07416 196.011 6.73385C196.011 10.3935 192.937 13.4677 189.277 13.4677C185.471 13.3213 182.543 10.3935 182.543 6.73385Z" fill="black"/>
<path d="M330.252 194.994C339.621 194.994 347.233 202.606 347.233 211.975C347.233 221.344 339.621 228.956 330.252 228.956C320.884 228.956 313.271 221.344 313.271 211.975C313.271 202.753 320.884 194.994 330.252 194.994ZM330.252 224.711C337.279 224.711 342.842 219.002 342.842 212.121C342.842 205.095 337.133 199.532 330.252 199.532C323.372 199.532 317.663 205.241 317.663 212.121C317.663 219.002 323.226 224.711 330.252 224.711Z" fill="black"/>
</g>
</g>
</svg>
